<svg width="30" height="30" viewBox="0 0 30 30" fill="none" xmlns="http://www.w3.org/2000/svg">
<g clip-path="url(#clip0_6_11)">
<path d="M24 26C24 25.593 23.9833 25.2002 23.9511 24.8214M23.9511 24.8214C23.0823 14.6071 10.9178 14.6071 10.0489 24.8214M23.9511 24.8214H10.0489M23.9511 24.8214H24M10.0489 24.8214C10.0167 25.2002 10 25.593 10 26M10.0489 24.8214H10M23.2223 10.2857C23.2223 13.7572 20.4364 16.5715 17 16.5715C13.5636 16.5715 10.7778 13.7572 10.7778 10.2857C10.7778 6.81421 13.5636 4 17 4C20.4364 4 23.2223 6.81421 23.2223 10.2857Z" stroke="#DEC4E3" stroke-width="2.28879"/>
<line x1="21" y1="8.5" x2="13" y2="8.5" stroke="#DEC4E3"/>
<path d="M18 8C18 8 18 10 19.5 10C21 10 21 8 21 8" stroke="#DEC4E3"/>
<path d="M13 8C13 8 13 10 14.5 10C16 10 16 8 16 8" stroke="#DEC4E3"/>
<line x1="15.4" y1="9.5" x2="13.6" y2="9.5" stroke="#DEC4E3"/>
<line x1="20.5" y1="9.5" x2="18.7" y2="9.5" stroke="#DEC4E3"/>
<line x1="10.2929" y1="19.7071" x2="5.29289" y2="14.7071" stroke="#DEC4E3" stroke-width="2"/>
<rect y="13.9566" width="7" height="5" transform="rotate(-45.0797 0 13.9566)" fill="#DEC4E3"/>
</g>
<defs>
<clipPath id="clip0_6_11">
<rect width="30" height="30" fill="white"/>
</clipPath>
</defs>
</svg>

