<svg width="51" height="64" viewBox="0 0 51 64" fill="none" xmlns="http://www.w3.org/2000/svg">
<path d="M32 31C32 30.6117 31.9834 30.2366 31.9512 29.875M31.9512 29.875C31.0822 20.125 18.9178 20.125 18.0488 29.875M31.9512 29.875H18.0488M31.9512 29.875H32M18.0488 29.875C18.0166 30.2366 18 30.6117 18 31M18.0488 29.875H18M31.2222 16C31.2222 19.3137 28.4364 22 25 22C21.5636 22 18.7778 19.3137 18.7778 16C18.7778 12.6863 21.5636 10 25 10C28.4364 10 31.2222 12.6863 31.2222 16Z" stroke="#DEC4E3" stroke-width="2.925"/>
<rect x="1.5" y="2.5" width="48" height="60" rx="8.5" stroke="#DEC4E3" stroke-width="3"/>
<line x1="9" y1="39" x2="40" y2="39" stroke="#DEC4E3" stroke-width="2"/>
<line x1="9" y1="44" x2="40" y2="44" stroke="#DEC4E3" stroke-width="2"/>
<line x1="9" y1="49" x2="40" y2="49" stroke="#DEC4E3" stroke-width="2"/>
<line x1="9" y1="54" x2="32" y2="54" stroke="#DEC4E3" stroke-width="2"/>
<line x1="15" x2="15" y2="5.52268" stroke="#DEC4E3" stroke-width="2"/>
<line x1="36" x2="36" y2="5.52268" stroke="#DEC4E3" stroke-width="2"/>
</svg>

