<svg width="67" height="60" viewBox="0 0 67 65" fill="none" xmlns="http://www.w3.org/2000/svg">
<path d="M37 46C37 45.7411 36.9893 45.4911 36.9686 45.25M36.9686 45.25C36.41 38.75 28.59 38.75 28.0314 45.25M36.9686 45.25H28.0314M36.9686 45.25H37M28.0314 45.25C28.0107 45.4911 28 45.7411 28 46M28.0314 45.25H28M36.5 36C36.5 38.2091 34.7091 40 32.5 40C30.2909 40 28.5 38.2091 28.5 36C28.5 33.7909 30.2909 32 32.5 32C34.7091 32 36.5 33.7909 36.5 36Z" stroke="#DEC4E3" stroke-width="1.5"/>
<path d="M20 53C20 52.7411 19.9893 52.4911 19.9686 52.25M19.9686 52.25C19.41 45.75 11.59 45.75 11.0314 52.25M19.9686 52.25H11.0314M19.9686 52.25H20M11.0314 52.25C11.0107 52.4911 11 52.7411 11 53M11.0314 52.25H11M19.5 43C19.5 45.2091 17.7091 47 15.5 47C13.2909 47 11.5 45.2091 11.5 43C11.5 40.7909 13.2909 39 15.5 39C17.7091 39 19.5 40.7909 19.5 43Z" stroke="#DEC4E3" stroke-width="1.5"/>
<path d="M47 60C47 59.7411 46.9893 59.4911 46.9686 59.25M46.9686 59.25C46.41 52.75 38.59 52.75 38.0314 59.25M46.9686 59.25H38.0314M46.9686 59.25H47M38.0314 59.25C38.0107 59.4911 38 59.7411 38 60M38.0314 59.25H38M46.5 50C46.5 52.2091 44.7091 54 42.5 54C40.2909 54 38.5 52.2091 38.5 50C38.5 47.7909 40.2909 46 42.5 46C44.7091 46 46.5 47.7909 46.5 50Z" stroke="#DEC4E3" stroke-width="1.5"/>
<path d="M66 44C66 43.7411 65.9893 43.4911 65.9686 43.25M65.9686 43.25C65.41 36.75 57.59 36.75 57.0314 43.25M65.9686 43.25H57.0314M65.9686 43.25H66M57.0314 43.25C57.0107 43.4911 57 43.7411 57 44M57.0314 43.25H57M65.5 34C65.5 36.2091 63.7091 38 61.5 38C59.2909 38 57.5 36.2091 57.5 34C57.5 31.7909 59.2909 30 61.5 30C63.7091 30 65.5 31.7909 65.5 34Z" stroke="#DEC4E3" stroke-width="1.5"/>
<path d="M38 25C38 24.7411 37.9893 24.4911 37.9686 24.25M37.9686 24.25C37.41 17.75 29.59 17.75 29.0314 24.25M37.9686 24.25H29.0314M37.9686 24.25H38M29.0314 24.25C29.0107 24.4911 29 24.7411 29 25M29.0314 24.25H29M37.5 15C37.5 17.2091 35.7091 19 33.5 19C31.2909 19 29.5 17.2091 29.5 15C29.5 12.7909 31.2909 11 33.5 11C35.7091 11 37.5 12.7909 37.5 15Z" stroke="#DEC4E3" stroke-width="1.5"/>
<path d="M10 37C10 36.7411 9.98927 36.4911 9.96856 36.25M9.96856 36.25C9.40999 29.75 1.59001 29.75 1.03144 36.25M9.96856 36.25H1.03144M9.96856 36.25H10M1.03144 36.25C1.01073 36.4911 1 36.7411 1 37M1.03144 36.25H1M9.5 27C9.5 29.2091 7.70914 31 5.5 31C3.29086 31 1.5 29.2091 1.5 27C1.5 24.7909 3.29086 23 5.5 23C7.70914 23 9.5 24.7909 9.5 27Z" stroke="#DEC4E3" stroke-width="1.5"/>
<line x1="26.7519" y1="11.4341" x2="19.7519" y2="7.43412" stroke="#DEC4E3"/>
<line x1="30.3972" y1="8.77604" x2="25.5982" y2="2.29762" stroke="#DEC4E3"/>
<line x1="38.7248" y1="11.0192" x2="45.4566" y2="6.58251" stroke="#DEC4E3"/>
<line x1="33.5" y1="8.06226" x2="33.5" y2="-1.90735e-06" stroke="#DEC4E3"/>
<line x1="36.6178" y1="8.84022" x2="41.8161" y2="2.67761" stroke="#DEC4E3"/>
</svg>

