<svg width="36" height="38" viewBox="0 0 36 38" fill="none" xmlns="http://www.w3.org/2000/svg">
<path d="M22 26C22 25.6486 21.9857 25.3093 21.9581 24.9821M21.9581 24.9821C21.2133 16.1607 10.7867 16.1607 10.0419 24.9821M21.9581 24.9821H10.0419M21.9581 24.9821H22M10.0419 24.9821C10.0143 25.3093 10 25.6486 10 26M10.0419 24.9821H10M21.3333 12.4286C21.3333 15.4266 18.9455 17.8571 16 17.8571C13.0545 17.8571 10.6667 15.4266 10.6667 12.4286C10.6667 9.43051 13.0545 7 16 7C18.9455 7 21.3333 9.43051 21.3333 12.4286Z" stroke="#DEC4E3" stroke-width="2.925"/>
<circle cx="16" cy="16" r="14.5" stroke="#DEC4E3" stroke-width="3"/>
<path d="M26.0042 27.9584L34 36" stroke="#DEC4E3" stroke-width="3" stroke-linecap="round"/>
</svg>

