<svg width="86" height="52" viewBox="0 0 86 52" fill="none" xmlns="http://www.w3.org/2000/svg">
<path d="M59 47C59 46.7411 58.9893 46.4911 58.9686 46.25M58.9686 46.25C58.41 39.75 50.59 39.75 50.0314 46.25M58.9686 46.25H50.0314M58.9686 46.25H59M50.0314 46.25C50.0107 46.4911 50 46.7411 50 47M50.0314 46.25H50M58.5 37C58.5 39.2091 56.7091 41 54.5 41C52.2909 41 50.5 39.2091 50.5 37C50.5 34.7909 52.2909 33 54.5 33C56.7091 33 58.5 34.7909 58.5 37Z" stroke="#DEC4E3" stroke-width="1.5"/>
<path d="M37 47C37 46.7411 36.9893 46.4911 36.9686 46.25M36.9686 46.25C36.41 39.75 28.59 39.75 28.0314 46.25M36.9686 46.25H28.0314M36.9686 46.25H37M28.0314 46.25C28.0107 46.4911 28 46.7411 28 47M28.0314 46.25H28M36.5 37C36.5 39.2091 34.7091 41 32.5 41C30.2909 41 28.5 39.2091 28.5 37C28.5 34.7909 30.2909 33 32.5 33C34.7091 33 36.5 34.7909 36.5 37Z" stroke="#DEC4E3" stroke-width="1.5"/>
<path d="M48 52C48 51.7411 47.9893 51.4911 47.9686 51.25M47.9686 51.25C47.41 44.75 39.59 44.75 39.0314 51.25M47.9686 51.25H39.0314M47.9686 51.25H48M39.0314 51.25C39.0107 51.4911 39 51.7411 39 52M39.0314 51.25H39M47.5 42C47.5 44.2091 45.7091 46 43.5 46C41.2909 46 39.5 44.2091 39.5 42C39.5 39.7909 41.2909 38 43.5 38C45.7091 38 47.5 39.7909 47.5 42Z" stroke="#DEC4E3" stroke-width="1.5"/>
<path d="M85 15C85 14.7411 84.9893 14.4911 84.9686 14.25M84.9686 14.25C84.41 7.75 76.59 7.75 76.0314 14.25M84.9686 14.25H76.0314M84.9686 14.25H85M76.0314 14.25C76.0107 14.4911 76 14.7411 76 15M76.0314 14.25H76M84.5 5C84.5 7.20914 82.7091 9 80.5 9C78.2909 9 76.5 7.20914 76.5 5C76.5 2.79086 78.2909 1 80.5 1C82.7091 1 84.5 2.79086 84.5 5Z" stroke="#DEC4E3" stroke-width="1.5"/>
<path d="M63 15C63 14.7411 62.9893 14.4911 62.9686 14.25M62.9686 14.25C62.41 7.75 54.59 7.75 54.0314 14.25M62.9686 14.25H54.0314M62.9686 14.25H63M54.0314 14.25C54.0107 14.4911 54 14.7411 54 15M54.0314 14.25H54M62.5 5C62.5 7.20914 60.7091 9 58.5 9C56.2909 9 54.5 7.20914 54.5 5C54.5 2.79086 56.2909 1 58.5 1C60.7091 1 62.5 2.79086 62.5 5Z" stroke="#DEC4E3" stroke-width="1.5"/>
<path d="M74 20C74 19.7411 73.9893 19.4911 73.9686 19.25M73.9686 19.25C73.41 12.75 65.59 12.75 65.0314 19.25M73.9686 19.25H65.0314M73.9686 19.25H74M65.0314 19.25C65.0107 19.4911 65 19.7411 65 20M65.0314 19.25H65M73.5 10C73.5 12.2091 71.7091 14 69.5 14C67.2909 14 65.5 12.2091 65.5 10C65.5 7.79086 67.2909 6 69.5 6C71.7091 6 73.5 7.79086 73.5 10Z" stroke="#DEC4E3" stroke-width="1.5"/>
<path d="M32 15C32 14.7411 31.9893 14.4911 31.9686 14.25M31.9686 14.25C31.41 7.75 23.59 7.75 23.0314 14.25M31.9686 14.25H23.0314M31.9686 14.25H32M23.0314 14.25C23.0107 14.4911 23 14.7411 23 15M23.0314 14.25H23M31.5 5C31.5 7.20914 29.7091 9 27.5 9C25.2909 9 23.5 7.20914 23.5 5C23.5 2.79086 25.2909 1 27.5 1C29.7091 1 31.5 2.79086 31.5 5Z" stroke="#DEC4E3" stroke-width="1.5"/>
<path d="M10 15C10 14.7411 9.98927 14.4911 9.96856 14.25M9.96856 14.25C9.40999 7.75 1.59001 7.75 1.03144 14.25M9.96856 14.25H1.03144M9.96856 14.25H10M1.03144 14.25C1.01073 14.4911 1 14.7411 1 15M1.03144 14.25H1M9.5 5C9.5 7.20914 7.70914 9 5.5 9C3.29086 9 1.5 7.20914 1.5 5C1.5 2.79086 3.29086 1 5.5 1C7.70914 1 9.5 2.79086 9.5 5Z" stroke="#DEC4E3" stroke-width="1.5"/>
<path d="M21 20C21 19.7411 20.9893 19.4911 20.9686 19.25M20.9686 19.25C20.41 12.75 12.59 12.75 12.0314 19.25M20.9686 19.25H12.0314M20.9686 19.25H21M12.0314 19.25C12.0107 19.4911 12 19.7411 12 20M12.0314 19.25H12M20.5 10C20.5 12.2091 18.7091 14 16.5 14C14.2909 14 12.5 12.2091 12.5 10C12.5 7.79086 14.2909 6 16.5 6C18.7091 6 20.5 7.79086 20.5 10Z" stroke="#DEC4E3" stroke-width="1.5"/>
<path d="M50.2217 11.3182C50.3974 11.1425 50.3974 10.8575 50.2217 10.6818L47.3579 7.81802C47.1822 7.64228 46.8972 7.64228 46.7215 7.81802C46.5458 7.99376 46.5458 8.27868 46.7215 8.45442L49.2671 11L46.7215 13.5456C46.5458 13.7213 46.5458 14.0062 46.7215 14.182C46.8972 14.3577 47.1822 14.3577 47.3579 14.182L50.2217 11.3182ZM39 11.45H49.9035V10.55H39V11.45Z" fill="#DEC4E3"/>
<path d="M36.6818 5.6818C36.5061 5.85754 36.5061 6.14246 36.6818 6.3182L39.5456 9.18198C39.7213 9.35772 40.0062 9.35772 40.182 9.18198C40.3577 9.00624 40.3577 8.72132 40.182 8.54558L37.6364 6L40.182 3.45442C40.3577 3.27868 40.3577 2.99376 40.182 2.81802C40.0062 2.64228 39.7213 2.64228 39.5456 2.81802L36.6818 5.6818ZM47.9035 5.55L37 5.55V6.45L47.9035 6.45V5.55Z" fill="#DEC4E3"/>
<path d="M18.6613 23.5523C18.414 23.527 18.193 23.7068 18.1677 23.9541L17.7544 27.9829C17.7291 28.2302 17.9089 28.4511 18.1561 28.4765C18.4034 28.5019 18.6244 28.322 18.6497 28.0748L19.0171 24.4936L22.5983 24.8609C22.8455 24.8863 23.0665 24.7064 23.0918 24.4592C23.1172 24.212 22.9373 23.991 22.6901 23.9656L18.6613 23.5523ZM25.8473 32.1724L18.9643 23.7159L18.2663 24.2841L25.1493 32.7405L25.8473 32.1724Z" fill="#DEC4E3"/>
<path d="M22.837 37.6115C23.0843 37.6369 23.3052 37.457 23.3306 37.2098L23.7439 33.1809C23.7692 32.9337 23.5894 32.7127 23.3421 32.6874C23.0949 32.662 22.8739 32.8419 22.8486 33.0891L22.4812 36.6703L18.9 36.3029C18.6528 36.2776 18.4318 36.4574 18.4064 36.7047C18.3811 36.9519 18.5609 37.1729 18.8082 37.1982L22.837 37.6115ZM15.651 28.9915L22.5339 37.4479L23.2319 36.8798L16.349 28.4234L15.651 28.9915Z" fill="#DEC4E3"/>
<path d="M62.5603 33.267C62.613 33.5099 62.8527 33.664 63.0956 33.6112L67.0532 32.7511C67.296 32.6983 67.4501 32.4586 67.3973 32.2158C67.3446 31.9729 67.1049 31.8188 66.862 31.8716L63.3442 32.6361L62.5796 29.1183C62.5268 28.8754 62.2872 28.7213 62.0443 28.7741C61.8015 28.8269 61.6474 29.0665 61.7001 29.3094L62.5603 33.267ZM68.5181 23.7566L62.6215 32.9281L63.3785 33.4148L69.2752 24.2434L68.5181 23.7566Z" fill="#DEC4E3"/>
<path d="M74.6237 24.9262C74.571 24.6833 74.3313 24.5292 74.0884 24.582L70.1308 25.4421C69.888 25.4949 69.7339 25.7346 69.7867 25.9774C69.8394 26.2203 70.0791 26.3744 70.322 26.3216L73.8398 25.557L74.6044 29.0749C74.6572 29.3178 74.8968 29.4719 75.1397 29.4191C75.3825 29.3663 75.5366 29.1266 75.4839 28.8838L74.6237 24.9262ZM68.6659 34.4365L74.5625 25.2651L73.8055 24.7784L67.9088 33.9498L68.6659 34.4365Z" fill="#DEC4E3"/>
</svg>

