<svg width="33" height="30" viewBox="0 0 33 30" fill="none" xmlns="http://www.w3.org/2000/svg">
<path d="M29 29C29 28.7226 28.9893 28.4547 28.9686 28.1964M28.9686 28.1964C28.41 21.2321 20.59 21.2321 20.0314 28.1964M28.9686 28.1964H20.0314M28.9686 28.1964H29M20.0314 28.1964C20.0107 28.4547 20 28.7226 20 29M20.0314 28.1964H20M28.5 18.2857C28.5 20.6526 26.7091 22.5714 24.5 22.5714C22.2909 22.5714 20.5 20.6526 20.5 18.2857C20.5 15.9188 22.2909 14 24.5 14C26.7091 14 28.5 15.9188 28.5 18.2857Z" stroke="#DEC4E3" stroke-width="2"/>
<path d="M14 29C14 28.7226 13.9893 28.4547 13.9686 28.1964M13.9686 28.1964C13.41 21.2321 5.59 21.2321 5.0314 28.1964M13.9686 28.1964H5.0314M13.9686 28.1964H14M5.0314 28.1964C5.0107 28.4547 5 28.7226 5 29M5.0314 28.1964H5M13.5 18.2857C13.5 20.6526 11.7091 22.5714 9.5 22.5714C7.2909 22.5714 5.5 20.6526 5.5 18.2857C5.5 15.9188 7.2909 14 9.5 14C11.7091 14 13.5 15.9188 13.5 18.2857Z" stroke="#DEC4E3" stroke-width="2"/>
<line x1="1" y1="-1" x2="4.99586" y2="-1" transform="matrix(-0.412956 -0.910751 0.783171 -0.621806 4.47601 10.4472)" stroke="#DEC4E3" stroke-width="2" stroke-linecap="round"/>
<line x1="1" y1="-1" x2="5.01715" y2="-1" transform="matrix(0.399901 -0.916558 0.794633 0.60709 30 10.5151)" stroke="#DEC4E3" stroke-width="2" stroke-linecap="round"/>
<line x1="1" y1="-1" x2="5.20645" y2="-1" transform="matrix(0.265206 -0.964192 0.90095 0.433923 23 7.98419)" stroke="#DEC4E3" stroke-width="2" stroke-linecap="round"/>
<line x1="16" y1="6" x2="16" y2="1" stroke="#DEC4E3" stroke-width="2" stroke-linecap="round"/>
<line x1="1" y1="-1" x2="5.20645" y2="-1" transform="matrix(-0.265206 -0.964192 0.90095 -0.433923 10.646 7.98419)" stroke="#DEC4E3" stroke-width="2" stroke-linecap="round"/>
</svg>

