<svg width="115" height="67" viewBox="0 0 115 67" fill="none" xmlns="http://www.w3.org/2000/svg">
<path d="M43.25 66.65C43.25 66.1452 43.2291 65.6577 43.1888 65.1875M43.1888 65.1875C42.0995 52.5125 26.8505 52.5125 25.7612 65.1875M43.1888 65.1875H25.7612M43.1888 65.1875H43.25M25.7612 65.1875C25.7209 65.6577 25.7 66.1452 25.7 66.65M25.7612 65.1875H25.7M42.275 47.15C42.275 51.4578 38.7827 54.95 34.475 54.95C30.1673 54.95 26.675 51.4578 26.675 47.15C26.675 42.8423 30.1673 39.35 34.475 39.35C38.7827 39.35 42.275 42.8423 42.275 47.15Z" stroke="#DEC4E3" stroke-width="2.925"/>
<path d="M64.7 56.9C64.7 56.3952 64.6791 55.9077 64.6388 55.4375M64.6388 55.4375C63.5495 42.7625 48.3005 42.7625 47.2112 55.4375M64.6388 55.4375H47.2112M64.6388 55.4375H64.7M47.2112 55.4375C47.1709 55.9077 47.15 56.3952 47.15 56.9M47.2112 55.4375H47.15M63.725 37.4C63.725 41.7078 60.2327 45.2 55.925 45.2C51.6172 45.2 48.125 41.7078 48.125 37.4C48.125 33.0923 51.6172 29.6 55.925 29.6C60.2327 29.6 63.725 33.0923 63.725 37.4Z" stroke="#DEC4E3" stroke-width="2.925"/>
<path d="M35.45 29.6C35.45 29.0951 35.4291 28.6076 35.3888 28.1375M35.3888 28.1375C34.2995 15.4625 19.0505 15.4625 17.9612 28.1375M35.3888 28.1375H17.9612M35.3888 28.1375H35.45M17.9612 28.1375C17.9209 28.6076 17.9 29.0951 17.9 29.6M17.9612 28.1375H17.9M34.475 10.1C34.475 14.4078 30.9827 17.9 26.675 17.9C22.3672 17.9 18.875 14.4078 18.875 10.1C18.875 5.79218 22.3672 2.3 26.675 2.3C30.9827 2.3 34.475 5.79218 34.475 10.1Z" stroke="#DEC4E3" stroke-width="2.925"/>
<path d="M113.45 41.95C113.45 41.4452 113.429 40.9577 113.389 40.4875M113.389 40.4875C112.299 27.8125 97.0505 27.8125 95.9612 40.4875M113.389 40.4875H95.9612M113.389 40.4875H113.45M95.9612 40.4875C95.9209 40.9577 95.9 41.4452 95.9 41.95M95.9612 40.4875H95.9M112.475 22.45C112.475 26.7578 108.983 30.25 104.675 30.25C100.367 30.25 96.875 26.7578 96.875 22.45C96.875 18.1423 100.367 14.65 104.675 14.65C108.983 14.65 112.475 18.1423 112.475 22.45Z" stroke="#DEC4E3" stroke-width="2.925"/>
<path d="M91.0661 24.8133C90.7903 24.3355 90.336 23.9869 89.8031 23.8441C89.2703 23.7013 88.7025 23.7761 88.2248 24.0519C88.0729 24.1395 87.9326 24.2459 87.8072 24.3685L86.8644 22.7357C86.6965 22.4448 86.4607 22.1988 86.177 22.0189C85.8933 21.839 85.5703 21.7305 85.2356 21.7027C84.9008 21.6749 84.5643 21.7285 84.2549 21.8591C83.9454 21.9897 83.6721 22.1933 83.4585 22.4525C83.0688 22.1886 82.601 22.0646 82.1317 22.1008C81.6623 22.1371 81.2192 22.3314 80.8746 22.6521C80.53 22.9728 80.3043 23.4009 80.2345 23.8664C80.1647 24.3319 80.2548 24.8074 80.4901 25.215L80.523 25.2721C80.2172 25.3572 79.935 25.5111 79.6978 25.722C79.4606 25.933 79.2749 26.1954 79.1547 26.4893C79.0346 26.7831 78.9833 27.1005 79.0047 27.4172C79.0262 27.7338 79.1198 28.0414 79.2784 28.3164L82.0084 33.0449C82.8017 34.4179 84.1078 35.4196 85.6395 35.8297C87.1712 36.2399 88.8031 36.0249 90.1763 35.2321C91.5495 34.4392 92.5516 33.1335 92.9623 31.6019C93.3729 30.0703 93.1585 28.4384 92.3661 27.0649L91.0661 24.8133ZM91.4567 31.1989C91.2304 32.0433 90.7588 32.8016 90.1016 33.378C89.4443 33.9544 88.6309 34.3229 87.7642 34.437C86.8975 34.5511 86.0164 34.4057 85.2324 34.019C84.4483 33.6324 83.7965 33.0219 83.3594 32.2649L80.6294 27.5364C80.5953 27.4773 80.5731 27.412 80.5642 27.3443C80.5553 27.2766 80.5598 27.2078 80.5774 27.1418C80.6131 27.0086 80.7003 26.895 80.8197 26.8261C80.9391 26.7571 81.0811 26.7384 81.2143 26.7741C81.3475 26.8098 81.4611 26.8969 81.5301 27.0163L82.9601 29.4932C82.9763 29.5209 82.9942 29.5475 83.0136 29.573C83.0193 29.5805 83.0253 29.5877 83.0312 29.595C83.0459 29.6131 83.0613 29.6304 83.0773 29.6469C83.0837 29.6534 83.0898 29.66 83.0964 29.6663C83.1183 29.6876 83.1415 29.7075 83.1658 29.726L83.1711 29.7297C83.1939 29.7464 83.2176 29.762 83.2421 29.7761C83.2501 29.7808 83.2581 29.785 83.2662 29.7894C83.286 29.8 83.3062 29.8097 83.3268 29.8186C83.3347 29.822 83.3425 29.8256 83.3505 29.8287C83.3783 29.8398 83.4068 29.8493 83.4357 29.8571C83.4389 29.8579 83.4421 29.8584 83.4453 29.8592C83.4714 29.8657 83.4978 29.8709 83.5245 29.8747C83.5335 29.876 83.5426 29.8769 83.5516 29.8779C83.5741 29.8804 83.5967 29.8818 83.6194 29.8823C83.6251 29.8824 83.6307 29.8834 83.6363 29.8834C83.639 29.8834 83.6418 29.8829 83.6446 29.8828C83.6745 29.8827 83.7044 29.8807 83.7341 29.8771C83.7375 29.8767 83.7408 29.8758 83.7442 29.8753C83.7708 29.8716 83.7972 29.8664 83.8233 29.8598C83.8325 29.8576 83.8416 29.8548 83.8507 29.8522C83.8722 29.846 83.8935 29.8389 83.9146 29.8307C83.9233 29.8274 83.932 29.8243 83.9406 29.8206C84.0734 29.7651 84.188 29.6736 84.2717 29.5565C84.3553 29.4393 84.4045 29.3012 84.4138 29.1575C84.4248 29.0025 84.3891 28.8477 84.3111 28.7132L81.8411 24.435C81.7727 24.3156 81.7545 24.174 81.7903 24.0411C81.8262 23.9083 81.9132 23.7951 82.0324 23.7263C82.1515 23.6575 82.2931 23.6388 82.426 23.6741C82.559 23.7095 82.6725 23.7961 82.7417 23.915L84.9517 27.7429C84.9651 27.766 84.9795 27.7884 84.9951 27.81C85.1122 27.972 85.2872 28.0829 85.4837 28.1197C85.6803 28.1565 85.8835 28.1164 86.0514 28.0077C86.2192 27.899 86.3389 27.7299 86.3857 27.5355C86.4325 27.3411 86.4028 27.1361 86.3028 26.9629L84.6126 24.0355C84.5437 23.916 84.5251 23.7741 84.5608 23.6409C84.5965 23.5077 84.6837 23.3941 84.8032 23.3252C84.9226 23.2563 85.0645 23.2376 85.1978 23.2734C85.331 23.3091 85.4445 23.3963 85.5134 23.5157L87.4633 26.893L87.7684 27.4214C87.2155 27.9441 86.8548 28.6379 86.7448 29.3908C86.6347 30.1436 86.7816 30.9116 87.1617 31.5707C87.2652 31.7499 87.4355 31.8806 87.6354 31.9342C87.8352 31.9877 88.0481 31.9597 88.2273 31.8563C88.4064 31.7528 88.5371 31.5824 88.5907 31.3826C88.6442 31.1828 88.6162 30.9699 88.5128 30.7907C88.2714 30.3727 88.206 29.8759 88.331 29.4097C88.4559 28.9434 88.7609 28.5459 89.179 28.3046C89.2015 28.2915 89.2234 28.2774 89.2446 28.2621C89.2588 28.2519 89.2719 28.2408 89.2853 28.2298C89.2916 28.2246 89.2983 28.2198 89.3044 28.2145C89.3209 28.1999 89.3364 28.1845 89.3515 28.1688C89.3539 28.1663 89.3566 28.164 89.3589 28.1615C89.3743 28.145 89.3887 28.1278 89.4024 28.1102C89.4043 28.1079 89.4063 28.1057 89.4081 28.1034C89.4211 28.0864 89.433 28.0688 89.4445 28.051C89.4467 28.0474 89.4493 28.0441 89.4516 28.0405C89.462 28.0237 89.4712 28.0063 89.4803 27.9889C89.483 27.9837 89.4861 27.9788 89.4887 27.9736C89.4971 27.9564 89.5044 27.9386 89.5116 27.9209C89.5139 27.915 89.5168 27.9095 89.519 27.9036C89.5369 27.8559 89.5501 27.8066 89.5585 27.7563C89.5594 27.7505 89.5597 27.7446 89.5605 27.7387C89.5633 27.7193 89.5659 27.7 89.5672 27.6804C89.5676 27.6753 89.5673 27.6701 89.5676 27.665C89.5685 27.6447 89.5692 27.6243 89.5685 27.6039C89.5684 27.6005 89.5679 27.5971 89.5678 27.5937C89.5668 27.5717 89.5652 27.5497 89.5623 27.5277L89.5613 27.5217C89.5581 27.4986 89.5541 27.4756 89.5487 27.4527L89.5472 27.4472C89.5418 27.4245 89.5355 27.4019 89.528 27.3796C89.5262 27.3743 89.5238 27.3693 89.5219 27.3641C89.5151 27.3454 89.5083 27.3268 89.5 27.3084C89.4894 27.2848 89.4775 27.2617 89.4645 27.2391L88.8141 26.1125C88.7453 25.9931 88.7267 25.8511 88.7625 25.718C88.7983 25.5848 88.8856 25.4714 89.005 25.4025C89.1245 25.3337 89.2664 25.3151 89.3995 25.3509C89.5327 25.3866 89.6462 25.4738 89.7151 25.5932L91.0151 27.8449C91.3068 28.347 91.496 28.9019 91.5719 29.4776C91.6477 30.0534 91.6085 30.6384 91.4567 31.1989ZM93.0352 24.5561C92.9465 24.6074 92.8486 24.6407 92.747 24.6541C92.6455 24.6675 92.5423 24.6607 92.4433 24.6342C92.3443 24.6077 92.2516 24.5619 92.1703 24.4996C92.0891 24.4372 92.0209 24.3594 91.9697 24.2706C91.6949 23.797 91.3008 23.4036 90.8266 23.1298C90.3523 22.8559 89.8146 22.7112 89.267 22.71C89.0601 22.7099 88.8618 22.6276 88.7156 22.4813C88.5693 22.335 88.4873 22.1365 88.4874 21.9297C88.4874 21.7228 88.5697 21.5244 88.7161 21.3782C88.8624 21.232 89.0608 21.1499 89.2677 21.15C90.0888 21.1519 90.8958 21.369 91.6068 21.7797C92.3178 22.1904 92.9088 22.7803 93.3207 23.4906C93.4242 23.6698 93.4522 23.8827 93.3986 24.0825C93.3451 24.2823 93.2144 24.4527 93.0352 24.5561ZM82.7765 36.5365C82.7107 36.615 82.6301 36.6799 82.5393 36.7272C82.4485 36.7746 82.3492 36.8037 82.2472 36.8127C82.1452 36.8217 82.0423 36.8105 81.9446 36.7798C81.8469 36.7491 81.7562 36.6994 81.6777 36.6337C80.9086 35.9892 80.2589 35.2145 79.7583 34.345C79.6549 34.1658 79.6269 33.9529 79.6804 33.7531C79.734 33.5533 79.8647 33.3829 80.0439 33.2795C80.223 33.176 80.4359 33.148 80.6357 33.2015C80.8356 33.2551 81.0059 33.3858 81.1094 33.565C81.5188 34.2765 82.0502 34.9104 82.6793 35.4377C82.7579 35.5035 82.8227 35.5841 82.8701 35.6749C82.9174 35.7657 82.9465 35.8649 82.9555 35.967C82.9645 36.069 82.9533 36.1718 82.9226 36.2696C82.8919 36.3673 82.8422 36.458 82.7765 36.5365Z" fill="#DEC4E3"/>
<path d="M40.8339 13.0133C41.1097 12.5355 41.564 12.1869 42.0969 12.0441C42.6297 11.9013 43.1975 11.9761 43.6752 12.2519C43.8271 12.3395 43.9674 12.4459 44.0928 12.5685L45.0356 10.9357C45.2035 10.6447 45.4393 10.3988 45.723 10.2189C46.0067 10.039 46.3297 9.93052 46.6644 9.90269C46.9992 9.87486 47.3357 9.92854 47.6451 10.0591C47.9546 10.1897 48.2279 10.3933 48.4415 10.6525C48.8312 10.3886 49.299 10.2646 49.7683 10.3008C50.2376 10.3371 50.6808 10.5314 51.0254 10.8521C51.37 11.1728 51.5957 11.6009 51.6655 12.0664C51.7353 12.5319 51.6452 13.0074 51.4099 13.415L51.3769 13.4721C51.6828 13.5572 51.965 13.7111 52.2022 13.922C52.4394 14.133 52.6251 14.3954 52.7452 14.6892C52.8654 14.9831 52.9167 15.3005 52.8952 15.6172C52.8738 15.9338 52.7802 16.2414 52.6216 16.5164L49.8916 21.2449C49.0983 22.6179 47.7922 23.6196 46.2605 24.0297C44.7288 24.4399 43.0969 24.2249 41.7237 23.4321C40.3505 22.6392 39.3483 21.3335 38.9377 19.8019C38.527 18.2703 38.7415 16.6384 39.5339 15.2649L40.8339 13.0133ZM40.4433 19.3989C40.6696 20.2433 41.1412 21.0016 41.7984 21.578C42.4557 22.1544 43.2691 22.5229 44.1358 22.637C45.0025 22.7511 45.8836 22.6057 46.6676 22.219C47.4517 21.8324 48.1035 21.2219 48.5406 20.4649L51.2706 15.7364C51.3047 15.6773 51.3269 15.612 51.3358 15.5443C51.3447 15.4766 51.3402 15.4078 51.3225 15.3418C51.2869 15.2086 51.1997 15.095 51.0803 15.0261C50.9609 14.9571 50.8189 14.9384 50.6857 14.9741C50.5525 15.0098 50.4389 15.0969 50.3699 15.2163L48.9399 17.6932C48.9237 17.7209 48.9058 17.7475 48.8864 17.773C48.8807 17.7805 48.8747 17.7877 48.8688 17.795C48.8541 17.8131 48.8387 17.8304 48.8227 17.8469C48.8163 17.8534 48.8101 17.86 48.8036 17.8663C48.7817 17.8876 48.7585 17.9075 48.7342 17.926L48.7289 17.9297C48.7061 17.9464 48.6824 17.9619 48.6579 17.9761C48.6499 17.9808 48.6419 17.985 48.6338 17.9894C48.614 18 48.5938 18.0097 48.5732 18.0186C48.5653 18.022 48.5575 18.0256 48.5495 18.0287C48.5217 18.0398 48.4932 18.0493 48.4643 18.0571C48.4611 18.0579 48.4579 18.0584 48.4547 18.0592C48.4286 18.0657 48.4022 18.0709 48.3755 18.0747C48.3665 18.076 48.3574 18.0769 48.3484 18.0779C48.3259 18.0803 48.3033 18.0818 48.2806 18.0823C48.2749 18.0824 48.2693 18.0834 48.2637 18.0834C48.2609 18.0834 48.2582 18.0829 48.2554 18.0828C48.2255 18.0827 48.1956 18.0807 48.1659 18.0771C48.1625 18.0767 48.1592 18.0758 48.1558 18.0753C48.1292 18.0715 48.1028 18.0664 48.0767 18.0598C48.0675 18.0576 48.0584 18.0548 48.0493 18.0522C48.0278 18.046 48.0065 18.0389 47.9854 18.0307C47.9767 18.0274 47.968 18.0243 47.9594 18.0206C47.8266 17.9651 47.7119 17.8736 47.6283 17.7565C47.5447 17.6393 47.4955 17.5012 47.4862 17.3575C47.4752 17.2025 47.5109 17.0477 47.5889 16.9132L50.0589 12.635C50.1273 12.5156 50.1455 12.374 50.1097 12.2411C50.0738 12.1083 49.9868 11.9951 49.8676 11.9263C49.7485 11.8575 49.6069 11.8388 49.474 11.8741C49.341 11.9095 49.2275 11.9961 49.1583 12.115L46.9483 15.9429C46.9349 15.966 46.9205 15.9884 46.9049 16.01C46.7877 16.172 46.6128 16.2829 46.4162 16.3197C46.2197 16.3565 46.0165 16.3164 45.8486 16.2077C45.6808 16.099 45.5611 15.9299 45.5143 15.7355C45.4675 15.5411 45.4972 15.3361 45.5972 15.1629L47.2873 12.2355C47.3563 12.116 47.3749 11.9741 47.3392 11.8409C47.3035 11.7077 47.2163 11.5941 47.0968 11.5252C46.9774 11.4563 46.8354 11.4376 46.7022 11.4734C46.569 11.5091 46.4555 11.5963 46.3866 11.7157L44.4367 15.093L44.1316 15.6214C44.6845 16.1441 45.0451 16.8379 45.1552 17.5908C45.2653 18.3436 45.1184 19.1116 44.7383 19.7707C44.6348 19.9499 44.4645 20.0806 44.2646 20.1342C44.0648 20.1877 43.8519 20.1597 43.6727 20.0562C43.4936 19.9528 43.3628 19.7824 43.3093 19.5826C43.2558 19.3828 43.2838 19.1699 43.3872 18.9907C43.6286 18.5727 43.694 18.0759 43.569 17.6097C43.4441 17.1434 43.1391 16.7459 42.721 16.5046C42.6985 16.4915 42.6766 16.4774 42.6554 16.4621C42.6412 16.4519 42.6281 16.4408 42.6147 16.4298C42.6084 16.4246 42.6017 16.4198 42.5956 16.4145C42.5791 16.3999 42.5636 16.3845 42.5485 16.3688C42.5461 16.3663 42.5434 16.364 42.5411 16.3615C42.5257 16.345 42.5113 16.3278 42.4976 16.3102C42.4957 16.3079 42.4937 16.3057 42.4919 16.3034C42.4789 16.2864 42.467 16.2688 42.4555 16.2509C42.4533 16.2474 42.4507 16.2441 42.4484 16.2405C42.438 16.2237 42.4288 16.2063 42.4197 16.1888C42.417 16.1837 42.4139 16.1788 42.4113 16.1736C42.4029 16.1564 42.3956 16.1386 42.3884 16.1209C42.3861 16.115 42.3832 16.1095 42.381 16.1036C42.3631 16.0559 42.3499 16.0066 42.3415 15.9563C42.3406 15.9505 42.3403 15.9446 42.3394 15.9387C42.3367 15.9193 42.3341 15.9 42.3328 15.8804C42.3324 15.8753 42.3327 15.8701 42.3324 15.865C42.3315 15.8446 42.3308 15.8243 42.3315 15.8039C42.3316 15.8005 42.3321 15.7971 42.3322 15.7937C42.3332 15.7717 42.3348 15.7497 42.3377 15.7277L42.3387 15.7217C42.3419 15.6986 42.3459 15.6756 42.3513 15.6527L42.3528 15.6472C42.3582 15.6245 42.3645 15.6019 42.372 15.5796C42.3738 15.5743 42.3762 15.5693 42.3781 15.5641C42.3849 15.5454 42.3917 15.5268 42.4 15.5084C42.4106 15.4848 42.4225 15.4617 42.4355 15.4391L43.0859 14.3125C43.1547 14.193 43.1733 14.0511 43.1375 13.918C43.1017 13.7848 43.0144 13.6714 42.895 13.6025C42.7755 13.5337 42.6336 13.5151 42.5005 13.5508C42.3673 13.5866 42.2538 13.6738 42.1849 13.7932L40.8849 16.0449C40.5932 16.547 40.4039 17.1019 40.3281 17.6776C40.2523 18.2534 40.2915 18.8384 40.4433 19.3989ZM38.8648 12.7561C38.9535 12.8074 39.0514 12.8407 39.153 12.8541C39.2545 12.8675 39.3577 12.8607 39.4567 12.8342C39.5556 12.8077 39.6484 12.7619 39.7297 12.6996C39.8109 12.6372 39.8791 12.5594 39.9303 12.4706C40.2051 11.997 40.5992 11.6036 41.0734 11.3298C41.5477 11.0559 42.0854 10.9112 42.633 10.91C42.8399 10.9099 43.0382 10.8276 43.1844 10.6813C43.3306 10.535 43.4127 10.3365 43.4126 10.1297C43.4126 9.92279 43.3303 9.72443 43.1839 9.57822C43.0376 9.432 42.8392 9.34991 42.6323 9.35001C41.8112 9.35191 41.0042 9.56904 40.2932 9.97973C39.5821 10.3904 38.9912 10.9803 38.5793 11.6906C38.4758 11.8698 38.4478 12.0827 38.5014 12.2825C38.5549 12.4823 38.6856 12.6527 38.8648 12.7561ZM49.1235 24.7365C49.1893 24.815 49.2699 24.8798 49.3607 24.9272C49.4515 24.9746 49.5508 25.0037 49.6528 25.0127C49.7548 25.0217 49.8576 25.0105 49.9554 24.9798C50.0531 24.9491 50.1438 24.8994 50.2223 24.8337C50.9914 24.1892 51.6411 23.4145 52.1417 22.545C52.2451 22.3658 52.2731 22.1529 52.2196 21.9531C52.166 21.7533 52.0353 21.5829 51.8561 21.4795C51.677 21.376 51.4641 21.348 51.2642 21.4015C51.0644 21.4551 50.8941 21.5858 50.7906 21.765C50.3812 22.4765 49.8498 23.1104 49.2207 23.6377C49.1421 23.7035 49.0773 23.7841 49.0299 23.8749C48.9826 23.9657 48.9535 24.0649 48.9445 24.167C48.9355 24.269 48.9467 24.3718 48.9774 24.4695C49.0081 24.5673 49.0578 24.658 49.1235 24.7365Z" fill="#DEC4E3"/>
<path d="M19.85 60.8C19.85 60.2952 19.8291 59.8077 19.7888 59.3375M19.7888 59.3375C18.6995 46.6625 3.45049 46.6625 2.36122 59.3375M19.7888 59.3375H2.36122M19.7888 59.3375H19.85M2.36122 59.3375C2.32085 59.8077 2.29999 60.2952 2.29999 60.8M2.36122 59.3375H2.29999M18.875 41.3C18.875 45.6078 15.3827 49.1 11.075 49.1C6.76724 49.1 3.27499 45.6078 3.27499 41.3C3.27499 36.9923 6.76724 33.5 11.075 33.5C15.3827 33.5 18.875 36.9923 18.875 41.3Z" stroke="#DEC4E3" stroke-width="2.925"/>
</svg>

