<svg width="30" height="30" viewBox="0 0 30 30" fill="none" xmlns="http://www.w3.org/2000/svg">
<g clip-path="url(#clip0_28_2)">
<g clip-path="url(#clip1_28_2)">
<path d="M27 1C27.5523 1 28 1.44772 28 2V15V28C28 28.5523 27.5523 29 27 29H7.58824C7.03595 29 6.58824 28.5523 6.58824 28V19.7741C6.58824 19.2461 7.0162 18.8182 7.54412 18.8182V18.8182C8.07204 18.8182 8.5 19.2461 8.5 19.7741V22.203V25.3267C8.5 25.4869 8.67908 25.5821 8.81191 25.4924L12.1149 23.2625C12.17 23.2253 12.203 23.1632 12.203 23.0967V21.203V19.8182C12.203 19.2659 12.6507 18.8182 13.203 18.8182H13.2353C13.7876 18.8182 14.2353 19.2659 14.2353 19.8182V23.4502C14.2353 23.5051 14.2127 23.5576 14.1728 23.5953L12.7019 24.9889C12.6941 24.9963 12.6857 25.003 12.6769 25.009L10.7185 26.3431C10.5566 26.4534 10.6335 26.7067 10.8295 26.7084L23.9916 26.819C24.5471 26.8236 25 26.3746 25 25.819V15V4C25 3.44772 24.5523 3 24 3H20.5H14.4353C14.3248 3 14.2353 3.08954 14.2353 3.2V7.36364V11.4545C14.2353 12.0068 13.7778 12.4545 13.2256 12.4545V12.4545C12.6733 12.4545 12.2158 12.0068 12.2158 11.4545V7.36364V3.2C12.2158 3.08954 12.1263 3 12.0158 3H10.703H9.5C8.94772 3 8.5 3.44772 8.5 4V7.36364V11.4987C8.5 12.0266 8.07204 12.4545 7.54412 12.4545V12.4545C7.0162 12.4545 6.58824 12.0266 6.58824 11.4987V2C6.58824 1.44771 7.03595 1 7.58824 1H27ZM18.6378 17.9809C18.4443 18.1913 18.4663 18.5209 18.686 18.7037L19.0436 19.0014C19.2289 19.1556 19.4979 19.1556 19.6832 19.0014L22.8195 16.3924C23.295 15.9969 23.301 15.2688 22.832 14.8655L19.8032 12.2608C19.6259 12.1083 19.3667 12.0991 19.179 12.2385L18.7659 12.5455C18.515 12.7319 18.4947 13.1001 18.7236 13.313L19.6275 14.1535C19.7605 14.2773 19.673 14.5 19.4913 14.5H11.6902H3C2.44772 14.5 2 14.9477 2 15.5V15.5C2 16.0523 2.44772 16.5 3 16.5H11.6902H19.5443C19.7185 16.5 19.8094 16.7072 19.6915 16.8354L18.6378 17.9809Z" fill="#DEC4E3"/>
</g>
</g>
<defs>
<clipPath id="clip0_28_2">
<rect width="30" height="30" fill="white"/>
</clipPath>
<clipPath id="clip1_28_2">
<rect width="30" height="30" fill="white"/>
</clipPath>
</defs>
</svg>

