<svg width="116" height="47" viewBox="0 0 116 47" fill="none" xmlns="http://www.w3.org/2000/svg">
<path d="M0.869318 6.27273H4.2983L11.1562 17.8153H11.446L18.304 6.27273H21.733L12.7983 20.8097V31H9.80398V20.8097L0.869318 6.27273ZM44.3192 31.4347C43.144 31.4347 42.0775 31.2133 41.1196 30.7706C40.1617 30.3198 39.4011 29.6719 38.8376 28.8267C38.2742 27.9735 37.9925 26.9432 37.9925 25.7358C37.9925 24.6733 38.2017 23.812 38.6203 23.152C39.0389 22.4839 39.5983 21.9607 40.2986 21.5824C40.9989 21.2041 41.7716 20.9223 42.6168 20.7372C43.47 20.544 44.3272 20.3911 45.1885 20.2784C46.3154 20.1335 47.229 20.0249 47.9293 19.9524C48.6376 19.8719 49.1527 19.7391 49.4747 19.554C49.8047 19.3688 49.9697 19.0469 49.9697 18.5881V18.4915C49.9697 17.3002 49.6437 16.3745 48.9918 15.7145C48.3478 15.0545 47.3698 14.7244 46.0578 14.7244C44.6975 14.7244 43.631 15.0223 42.8582 15.6179C42.0855 16.2135 41.5422 16.8494 41.2283 17.5256L38.5237 16.5597C39.0067 15.4328 39.6506 14.5554 40.4555 13.9276C41.2685 13.2917 42.1539 12.849 43.1118 12.5994C44.0777 12.3419 45.0275 12.2131 45.9612 12.2131C46.5569 12.2131 47.241 12.2855 48.0138 12.4304C48.7946 12.5672 49.5472 12.853 50.2716 13.2876C51.0041 13.7223 51.6118 14.3783 52.0947 15.2557C52.5777 16.133 52.8192 17.3082 52.8192 18.7812V31H49.9697V28.4886H49.8249C49.6317 28.8911 49.3097 29.3217 48.8589 29.7805C48.4082 30.2393 47.8085 30.6297 47.0599 30.9517C46.3114 31.2737 45.3978 31.4347 44.3192 31.4347ZM44.7538 28.875C45.8807 28.875 46.8305 28.6536 47.6033 28.2109C48.384 27.7682 48.9716 27.1967 49.366 26.4964C49.7685 25.7962 49.9697 25.0597 49.9697 24.2869V21.679C49.849 21.8239 49.5834 21.9567 49.1729 22.0774C48.7704 22.1901 48.3035 22.2907 47.7723 22.3793C47.2491 22.4598 46.738 22.5322 46.2389 22.5966C45.7479 22.6529 45.3495 22.7012 45.0436 22.7415C44.3031 22.8381 43.6108 22.995 42.9669 23.2124C42.331 23.4216 41.8159 23.7396 41.4214 24.1662C41.0351 24.5848 40.8419 25.1562 40.8419 25.8807C40.8419 26.8707 41.2081 27.6193 41.9406 28.1264C42.6812 28.6255 43.6189 28.875 44.7538 28.875ZM58.36 37.9545V12.4545H61.1128V15.4006H61.4509C61.6602 15.0786 61.9499 14.6681 62.3202 14.169C62.6985 13.6619 63.2378 13.2112 63.9381 12.8168C64.6464 12.4143 65.6043 12.2131 66.8117 12.2131C68.3732 12.2131 69.7497 12.6035 70.941 13.3842C72.1322 14.165 73.0619 15.2718 73.73 16.7045C74.3981 18.1373 74.7321 19.8277 74.7321 21.7756C74.7321 23.7396 74.3981 25.442 73.73 26.8828C73.0619 28.3156 72.1363 29.4264 70.953 30.2152C69.7698 30.996 68.4054 31.3864 66.86 31.3864C65.6687 31.3864 64.7149 31.1892 63.9985 30.7947C63.2821 30.3923 62.7307 29.9375 62.3444 29.4304C61.958 28.9152 61.6602 28.4886 61.4509 28.1506H61.2094V37.9545H58.36ZM61.1611 21.7273C61.1611 23.1278 61.3664 24.3634 61.7769 25.4339C62.1874 26.4964 62.7871 27.3295 63.5759 27.9332C64.3647 28.5289 65.3306 28.8267 66.4736 28.8267C67.6649 28.8267 68.659 28.5128 69.4559 27.8849C70.2608 27.2491 70.8645 26.3958 71.2669 25.3253C71.6775 24.2467 71.8827 23.0473 71.8827 21.7273C71.8827 20.4233 71.6815 19.2481 71.279 18.2017C70.8846 17.1473 70.2849 16.3142 69.48 15.7024C68.6831 15.0826 67.681 14.7727 66.4736 14.7727C65.3145 14.7727 64.3406 15.0665 63.5517 15.6541C62.7629 16.2337 62.1673 17.0466 61.7648 18.093C61.3624 19.1314 61.1611 20.3428 61.1611 21.7273ZM79.4187 37.9545V12.4545H82.1716V15.4006H82.5096C82.7189 15.0786 83.0087 14.6681 83.379 14.169C83.7573 13.6619 84.2966 13.2112 84.9969 12.8168C85.7052 12.4143 86.6631 12.2131 87.8704 12.2131C89.432 12.2131 90.8084 12.6035 91.9997 13.3842C93.191 14.165 94.1207 15.2718 94.7888 16.7045C95.4569 18.1373 95.7909 19.8277 95.7909 21.7756C95.7909 23.7396 95.4569 25.442 94.7888 26.8828C94.1207 28.3156 93.195 29.4264 92.0118 30.2152C90.8285 30.996 89.4642 31.3864 87.9187 31.3864C86.7275 31.3864 85.7736 31.1892 85.0572 30.7947C84.3408 30.3923 83.7895 29.9375 83.4031 29.4304C83.0167 28.9152 82.7189 28.4886 82.5096 28.1506H82.2682V37.9545H79.4187ZM82.2199 21.7273C82.2199 23.1278 82.4251 24.3634 82.8356 25.4339C83.2462 26.4964 83.8458 27.3295 84.6346 27.9332C85.4235 28.5289 86.3894 28.8267 87.5324 28.8267C88.7237 28.8267 89.7177 28.5128 90.5146 27.8849C91.3195 27.2491 91.9232 26.3958 92.3257 25.3253C92.7362 24.2467 92.9415 23.0473 92.9415 21.7273C92.9415 20.4233 92.7402 19.2481 92.3378 18.2017C91.9434 17.1473 91.3437 16.3142 90.5388 15.7024C89.7419 15.0826 88.7398 14.7727 87.5324 14.7727C86.3733 14.7727 85.3993 15.0665 84.6105 15.6541C83.8217 16.2337 83.226 17.0466 82.8236 18.093C82.4211 19.1314 82.2199 20.3428 82.2199 21.7273Z" fill="white"/>
<path d="M0.869318 6.27273V5.27273H-0.919078L0.0173685 6.79635L0.869318 6.27273ZM4.2983 6.27273L5.158 5.76194L4.86734 5.27273H4.2983V6.27273ZM11.1562 17.8153L10.2965 18.3261L10.5872 18.8153H11.1562V17.8153ZM11.446 17.8153V18.8153H12.0151L12.3057 18.3261L11.446 17.8153ZM18.304 6.27273V5.27273H17.7349L17.4443 5.76194L18.304 6.27273ZM21.733 6.27273L22.5849 6.79635L23.5214 5.27273H21.733V6.27273ZM12.7983 20.8097L11.9463 20.286L11.7983 20.5269V20.8097H12.7983ZM12.7983 31V32H13.7983V31H12.7983ZM9.80398 31H8.80398V32H9.80398V31ZM9.80398 20.8097H10.804V20.5269L10.6559 20.286L9.80398 20.8097ZM0.869318 7.27273H4.2983V5.27273H0.869318V7.27273ZM3.43859 6.78351L10.2965 18.3261L12.016 17.3046L5.158 5.76194L3.43859 6.78351ZM11.1562 18.8153H11.446V16.8153H11.1562V18.8153ZM12.3057 18.3261L19.1637 6.78351L17.4443 5.76194L10.5863 17.3046L12.3057 18.3261ZM18.304 7.27273H21.733V5.27273H18.304V7.27273ZM20.881 5.7491L11.9463 20.286L13.6502 21.3333L22.5849 6.79635L20.881 5.7491ZM11.7983 20.8097V31H13.7983V20.8097H11.7983ZM12.7983 30H9.80398V32H12.7983V30ZM10.804 31V20.8097H8.80398V31H10.804ZM10.6559 20.286L1.72127 5.7491L0.0173685 6.79635L8.95203 21.3333L10.6559 20.286ZM41.1196 30.7706L40.6938 31.6754L40.7001 31.6783L41.1196 30.7706ZM38.8376 28.8267L38.0032 29.3778L38.0056 29.3814L38.8376 28.8267ZM38.6203 23.152L39.4648 23.6875L39.4677 23.6829L38.6203 23.152ZM42.6168 20.7372L42.8307 21.7141L42.8376 21.7125L42.6168 20.7372ZM45.1885 20.2784L45.061 19.2866L45.0588 19.2869L45.1885 20.2784ZM47.9293 19.9524L48.0322 20.9472L48.0422 20.946L47.9293 19.9524ZM49.4747 19.554L48.9854 18.6818L48.9762 18.6871L49.4747 19.554ZM48.9918 15.7145L48.276 16.4128L48.2803 16.4172L48.9918 15.7145ZM42.8582 15.6179L43.4687 16.4099L42.8582 15.6179ZM41.2283 17.5256L40.8919 18.4673L41.7511 18.7742L42.1353 17.9467L41.2283 17.5256ZM38.5237 16.5597L37.6046 16.1657L37.1855 17.1436L38.1874 17.5014L38.5237 16.5597ZM40.4555 13.9276L41.0706 14.7161L41.0716 14.7152L40.4555 13.9276ZM43.1118 12.5994L43.3639 13.5672L43.3694 13.5657L43.1118 12.5994ZM48.0138 12.4304L47.8295 13.4133L47.8411 13.4154L48.0138 12.4304ZM50.2716 13.2876L49.7571 14.1451L49.7613 14.1476L50.2716 13.2876ZM52.0947 15.2557L51.2187 15.7379L52.0947 15.2557ZM52.8192 31V32H53.8192V31H52.8192ZM49.9697 31H48.9697V32H49.9697V31ZM49.9697 28.4886H50.9697V27.4886H49.9697V28.4886ZM49.8249 28.4886V27.4886H49.1956L48.9233 28.0559L49.8249 28.4886ZM48.8589 29.7805L49.5723 30.4814L48.8589 29.7805ZM47.0599 30.9517L46.6648 30.0331L47.0599 30.9517ZM47.6033 28.2109L47.11 27.341L47.1062 27.3433L47.6033 28.2109ZM49.366 26.4964L48.499 25.9981L48.4947 26.0057L49.366 26.4964ZM49.9697 21.679H50.9697V18.9169L49.2015 21.0388L49.9697 21.679ZM49.1729 22.0774L49.4425 23.0405L49.455 23.0368L49.1729 22.0774ZM47.7723 22.3793L47.9244 23.3677L47.9367 23.3657L47.7723 22.3793ZM46.2389 22.5966L46.3529 23.5902L46.3669 23.5884L46.2389 22.5966ZM45.0436 22.7415L45.1729 23.7331L45.1741 23.7329L45.0436 22.7415ZM42.9669 23.2124L43.2795 24.1623L43.2867 24.1598L42.9669 23.2124ZM41.4214 24.1662L40.6872 23.4873L40.6866 23.4879L41.4214 24.1662ZM41.9406 28.1264L41.3714 28.9487L41.3818 28.9557L41.9406 28.1264ZM44.3192 30.4347C43.2723 30.4347 42.3512 30.2382 41.5391 29.8629L40.7001 31.6783C41.8037 32.1884 43.0157 32.4347 44.3192 32.4347V30.4347ZM41.5454 29.8658C40.745 29.4891 40.1278 28.9591 39.6697 28.272L38.0056 29.3814C38.6744 30.3846 39.5784 31.1505 40.6938 31.6754L41.5454 29.8658ZM39.6721 28.2756C39.2349 27.6137 38.9925 26.7833 38.9925 25.7358H36.9925C36.9925 27.103 37.3134 28.3333 38.0032 29.3778L39.6721 28.2756ZM38.9925 25.7358C38.9925 24.7969 39.1782 24.1395 39.4648 23.6875L37.7758 22.6164C37.2253 23.4845 36.9925 24.5497 36.9925 25.7358H38.9925ZM39.4677 23.6829C39.7936 23.1628 40.2242 22.7592 40.7739 22.4622L39.8233 20.7026C38.9724 21.1622 38.2842 21.805 37.7729 22.6211L39.4677 23.6829ZM40.7739 22.4622C41.3852 22.132 42.0689 21.8809 42.8307 21.7141L42.4028 19.7604C41.4743 19.9638 40.6125 20.2762 39.8233 20.7026L40.7739 22.4622ZM42.8376 21.7125C43.6609 21.5261 44.4878 21.3786 45.3182 21.27L45.0588 19.2869C44.1667 19.4036 43.279 19.562 42.3959 19.7619L42.8376 21.7125ZM45.316 21.2702C46.439 21.1259 47.3435 21.0183 48.0322 20.9471L47.8264 18.9577C47.1144 19.0314 46.1918 19.1412 45.061 19.2866L45.316 21.2702ZM48.0422 20.946C48.7844 20.8617 49.4679 20.7114 49.9732 20.4209L48.9762 18.6871C48.8376 18.7668 48.4908 18.8822 47.8163 18.9588L48.0422 20.946ZM49.964 20.4261C50.6815 20.0236 50.9697 19.3176 50.9697 18.5881H48.9697C48.9697 18.7003 48.9494 18.7305 48.956 18.7176C48.9595 18.7109 48.9662 18.7007 48.9757 18.6909C48.985 18.6814 48.9903 18.6791 48.9855 18.6818L49.964 20.4261ZM50.9697 18.5881V18.4915H48.9697V18.5881H50.9697ZM50.9697 18.4915C50.9697 17.1152 50.5885 15.908 49.7032 15.0117L48.2803 16.4172C48.699 16.8411 48.9697 17.4852 48.9697 18.4915H50.9697ZM49.7075 15.0162C48.8077 14.0939 47.5239 13.7244 46.0578 13.7244V15.7244C47.2157 15.7244 47.8879 16.015 48.276 16.4128L49.7075 15.0162ZM46.0578 13.7244C44.562 13.7244 43.2527 14.0512 42.2477 14.8259L43.4687 16.4099C44.0092 15.9933 44.833 15.7244 46.0578 15.7244V13.7244ZM42.2477 14.8259C41.3857 15.4904 40.7204 16.2447 40.3213 17.1045L42.1353 17.9467C42.3639 17.4541 42.7853 16.9367 43.4687 16.4099L42.2477 14.8259ZM41.5646 16.5838L38.8601 15.6179L38.1874 17.5014L40.8919 18.4673L41.5646 16.5838ZM39.4429 16.9536C39.8727 15.9507 40.423 15.2212 41.0706 14.7161L39.8405 13.1391C38.8782 13.8896 38.1407 14.9148 37.6046 16.1657L39.4429 16.9536ZM41.0716 14.7152C41.7816 14.1599 42.544 13.7807 43.3639 13.5671L42.8597 11.6317C41.7638 11.9172 40.7555 12.4234 39.8394 13.1399L41.0716 14.7152ZM43.3694 13.5657C44.2572 13.3289 45.1204 13.2131 45.9612 13.2131V11.2131C44.9346 11.2131 43.8982 11.3548 42.8541 11.6332L43.3694 13.5657ZM45.9612 13.2131C46.4791 13.2131 47.0995 13.2764 47.8295 13.4133L48.1981 11.4475C47.3826 11.2946 46.6347 11.2131 45.9612 11.2131V13.2131ZM47.8411 13.4154C48.4933 13.5297 49.1309 13.7694 49.7571 14.1451L50.7861 12.4301C49.9635 11.9366 49.0958 11.6048 48.1864 11.4454L47.8411 13.4154ZM49.7613 14.1476C50.3152 14.4763 50.8065 14.9891 51.2187 15.7379L52.9708 14.7735C52.4171 13.7675 51.6929 12.9683 50.7819 12.4277L49.7613 14.1476ZM51.2187 15.7379C51.591 16.4142 51.8192 17.4031 51.8192 18.7812H53.8192C53.8192 17.2134 53.5644 15.8519 52.9708 14.7735L51.2187 15.7379ZM51.8192 18.7812V31H53.8192V18.7812H51.8192ZM52.8192 30H49.9697V32H52.8192V30ZM50.9697 31V28.4886H48.9697V31H50.9697ZM49.9697 27.4886H49.8249V29.4886H49.9697V27.4886ZM48.9233 28.0559C48.7937 28.3261 48.5503 28.6678 48.1456 29.0797L49.5723 30.4814C50.0691 29.9756 50.4697 29.4561 50.7264 28.9214L48.9233 28.0559ZM48.1456 29.0797C47.8065 29.4249 47.3248 29.7492 46.6648 30.0331L47.4551 31.8703C48.2923 31.5103 49.0098 31.0538 49.5723 30.4814L48.1456 29.0797ZM46.6648 30.0331C46.0744 30.287 45.3037 30.4347 44.3192 30.4347V32.4347C45.4919 32.4347 46.5483 32.2603 47.4551 31.8703L46.6648 30.0331ZM44.7538 29.875C46.0096 29.875 47.1412 29.6282 48.1004 29.0786L47.1062 27.3433C46.5199 27.6791 45.7518 27.875 44.7538 27.875V29.875ZM48.0965 29.0808C49.0165 28.5592 49.7436 27.8638 50.2374 26.9872L48.4947 26.0057C48.1997 26.5296 47.7516 26.9773 47.11 27.341L48.0965 29.0808ZM50.2331 26.9947C50.7185 26.15 50.9697 25.2426 50.9697 24.2869H48.9697C48.9697 24.8767 48.8185 25.4423 48.499 25.9982L50.2331 26.9947ZM50.9697 24.2869V21.679H48.9697V24.2869H50.9697ZM49.2015 21.0388C49.2373 20.9959 49.2651 20.9757 49.2684 20.9734C49.2724 20.9705 49.2627 20.9778 49.2328 20.9928C49.1704 21.024 49.0616 21.0678 48.8907 21.118L49.455 23.0368C49.6946 22.9663 49.9239 22.8833 50.1272 22.7817C50.3202 22.6852 50.5531 22.5409 50.738 22.3192L49.2015 21.0388ZM48.9032 21.1145C48.5436 21.2151 48.1132 21.3086 47.6079 21.3929L47.9367 23.3657C48.4939 23.2728 48.9972 23.1651 49.4425 23.0404L48.9032 21.1145ZM47.6202 21.3909C47.1046 21.4702 46.6016 21.5415 46.1109 21.6048L46.3669 23.5884C46.8744 23.5229 47.3936 23.4493 47.9244 23.3676L47.6202 21.3909ZM46.1249 21.6031C45.6313 21.6598 45.2267 21.7088 44.9132 21.75L45.1741 23.7329C45.4722 23.6937 45.8646 23.6461 46.3529 23.5901L46.1249 21.6031ZM44.9143 21.7499C44.1153 21.8541 43.3587 22.0247 42.6471 22.2649L43.2867 24.1598C43.863 23.9653 44.4909 23.822 45.1729 23.7331L44.9143 21.7499ZM42.6543 22.2625C41.8819 22.5167 41.2134 22.9182 40.6872 23.4873L42.1557 24.845C42.4184 24.561 42.7801 24.3266 43.2795 24.1622L42.6543 22.2625ZM40.6866 23.4879C40.0871 24.1374 39.8419 24.9757 39.8419 25.8807H41.8419C41.8419 25.3368 41.9831 25.0321 42.1562 24.8445L40.6866 23.4879ZM39.8419 25.8807C39.8419 27.1562 40.3359 28.2317 41.3714 28.9486L42.5098 27.3042C42.0804 27.0069 41.8419 26.5853 41.8419 25.8807H39.8419ZM41.3818 28.9557C42.327 29.5927 43.4736 29.875 44.7538 29.875V27.875C43.7642 27.875 43.0353 27.6582 42.4995 27.2972L41.3818 28.9557ZM58.36 37.9545H57.36V38.9545H58.36V37.9545ZM58.36 12.4545V11.4545H57.36V12.4545H58.36ZM61.1128 12.4545H62.1128V11.4545H61.1128V12.4545ZM61.1128 15.4006H60.1128V16.4006H61.1128V15.4006ZM61.4509 15.4006V16.4006H61.9936L62.2893 15.9456L61.4509 15.4006ZM62.3202 14.169L61.5187 13.5711L61.5171 13.5732L62.3202 14.169ZM63.9381 12.8168L64.4288 13.6881L64.4321 13.6862L63.9381 12.8168ZM70.9409 13.3842L71.4891 12.5479V12.5479L70.9409 13.3842ZM73.73 16.7045L74.6363 16.2819L73.73 16.7045ZM73.73 26.8828L74.6363 27.3054L74.6372 27.3035L73.73 26.8828ZM70.953 30.2152L71.5038 31.0499L71.5077 31.0472L70.953 30.2152ZM63.9985 30.7947L63.5087 31.6666L63.5162 31.6708L63.9985 30.7947ZM62.3444 29.4304L61.5443 30.0304L61.5489 30.0364L62.3444 29.4304ZM61.4509 28.1506L62.3012 27.6242L62.0079 27.1506H61.4509V28.1506ZM61.2094 28.1506V27.1506H60.2094V28.1506H61.2094ZM61.2094 37.9545V38.9545H62.2094V37.9545H61.2094ZM61.7769 25.4339L60.8432 25.792L60.8441 25.7943L61.7769 25.4339ZM63.5759 27.9332L62.9681 28.7274L62.9733 28.7313L63.5759 27.9332ZM69.4559 27.8849L70.0747 28.6704L70.0758 28.6696L69.4559 27.8849ZM71.2669 25.3253L70.3323 24.9696L70.3309 24.9734L71.2669 25.3253ZM71.279 18.2017L70.3424 18.5521L70.3457 18.5607L71.279 18.2017ZM69.48 15.7024L68.866 16.4918L68.8749 16.4986L69.48 15.7024ZM63.5517 15.6541L64.1438 16.46L64.1491 16.4561L63.5517 15.6541ZM61.7648 18.093L62.6972 18.4544L62.6982 18.452L61.7648 18.093ZM59.36 37.9545V12.4545H57.36V37.9545H59.36ZM58.36 13.4545H61.1128V11.4545H58.36V13.4545ZM60.1128 12.4545V15.4006H62.1128V12.4545H60.1128ZM61.1128 16.4006H61.4509V14.4006H61.1128V16.4006ZM62.2893 15.9456C62.4827 15.6481 62.7588 15.2561 63.1233 14.7649L61.5171 13.5732C61.141 14.0801 60.8377 14.5091 60.6124 14.8556L62.2893 15.9456ZM63.1217 14.767C63.3974 14.3976 63.8184 14.0319 64.4288 13.6881L63.4474 11.9455C62.6572 12.3905 61.9997 12.9263 61.5187 13.5711L63.1217 14.767ZM64.4321 13.6862C64.9344 13.4008 65.7 13.2131 66.8117 13.2131V11.2131C65.5086 11.2131 64.3585 11.4278 63.4441 11.9473L64.4321 13.6862ZM66.8117 13.2131C68.198 13.2131 69.38 13.5568 70.3928 14.2206L71.4891 12.5479C70.1193 11.6501 68.5485 11.2131 66.8117 11.2131V13.2131ZM70.3928 14.2206C71.4118 14.8885 72.2253 15.8438 72.8237 17.1272L74.6363 16.2819C73.8986 14.6997 72.8527 13.4415 71.4891 12.5479L70.3928 14.2206ZM72.8237 17.1272C73.4175 18.4005 73.7321 19.9405 73.7321 21.7756H75.7321C75.7321 19.7148 75.3787 17.8741 74.6363 16.2819L72.8237 17.1272ZM73.7321 21.7756C73.7321 23.6278 73.4171 25.1805 72.8228 26.4621L74.6372 27.3035C75.3791 25.7035 75.7321 23.8513 75.7321 21.7756H73.7321ZM72.8237 26.4602C72.2242 27.7459 71.4124 28.7071 70.3983 29.3831L71.5077 31.0472C72.8601 30.1457 73.8997 28.8852 74.6363 27.3054L72.8237 26.4602ZM70.4023 29.3805C69.3972 30.0438 68.228 30.3864 66.86 30.3864V32.3864C68.5828 32.3864 70.1424 31.9482 71.5038 31.0499L70.4023 29.3805ZM66.86 30.3864C65.7655 30.3864 64.9972 30.2031 64.4808 29.9187L63.5162 31.6708C64.4325 32.1753 65.5719 32.3864 66.86 32.3864V30.3864ZM64.4883 29.9229C63.8579 29.5688 63.4233 29.1965 63.1398 28.8244L61.5489 30.0364C62.0381 30.6785 62.7063 31.2158 63.5087 31.6666L64.4883 29.9229ZM63.1444 28.8304C62.7664 28.3264 62.4883 27.9264 62.3012 27.6242L60.6006 28.6769C60.8321 29.0508 61.1496 29.5041 61.5444 30.0304L63.1444 28.8304ZM61.4509 27.1506H61.2094V29.1506H61.4509V27.1506ZM60.2094 28.1506V37.9545H62.2094V28.1506H60.2094ZM61.2094 36.9545H58.36V38.9545H61.2094V36.9545ZM60.1611 21.7273C60.1611 23.224 60.3803 24.5849 60.8432 25.792L62.7106 25.0759C62.3524 24.1419 62.1611 23.0317 62.1611 21.7273H60.1611ZM60.8441 25.7943C61.311 27.0029 62.0127 27.9961 62.9681 28.7274L64.1836 27.1391C63.5615 26.663 63.0638 25.99 62.7097 25.0735L60.8441 25.7943ZM62.9733 28.7313C63.962 29.4778 65.1485 29.8267 66.4736 29.8267V27.8267C65.5127 27.8267 64.7675 27.5799 64.1785 27.1352L62.9733 28.7313ZM66.4736 29.8267C67.8487 29.8267 69.072 29.4605 70.0747 28.6704L68.837 27.0995C68.246 27.5651 67.4811 27.8267 66.4736 27.8267V29.8267ZM70.0758 28.6696C71.0395 27.9083 71.744 26.898 72.203 25.6772L70.3309 24.9734C69.9849 25.8937 69.4821 26.5898 68.836 27.1003L70.0758 28.6696ZM72.2015 25.681C72.661 24.4737 72.8827 23.1516 72.8827 21.7273H70.8827C70.8827 22.9431 70.6939 24.0197 70.3323 24.9696L72.2015 25.681ZM72.8827 21.7273C72.8827 20.3203 72.6654 19.0207 72.2124 17.8427L70.3457 18.5607C70.6975 19.4755 70.8827 20.5263 70.8827 21.7273H72.8827ZM72.2156 17.8514C71.7628 16.6407 71.0571 15.645 70.0851 14.9063L68.8749 16.4986C69.5127 16.9833 70.0064 17.6538 70.3424 18.552L72.2156 17.8514ZM70.094 14.9131C69.089 14.1314 67.8583 13.7727 66.4736 13.7727V15.7727C67.5037 15.7727 68.2773 16.0338 68.8661 16.4918L70.094 14.9131ZM66.4736 13.7727C65.139 13.7727 63.9451 14.1141 62.9544 14.8522L64.1491 16.4561C64.736 16.0189 65.4901 15.7727 66.4736 15.7727V13.7727ZM62.9597 14.8482C61.9952 15.5568 61.2924 16.5357 60.8315 17.7341L62.6982 18.452C63.0422 17.5576 63.5306 16.9105 64.1438 16.46L62.9597 14.8482ZM60.8324 17.7316C60.3759 18.9095 60.1611 20.2482 60.1611 21.7273H62.1611C62.1611 20.4374 62.3488 19.3533 62.6972 18.4544L60.8324 17.7316ZM79.4187 37.9545H78.4187V38.9545H79.4187V37.9545ZM79.4187 12.4545V11.4545H78.4187V12.4545H79.4187ZM82.1716 12.4545H83.1716V11.4545H82.1716V12.4545ZM82.1716 15.4006H81.1716V16.4006H82.1716V15.4006ZM82.5096 15.4006V16.4006H83.0523L83.3481 15.9456L82.5096 15.4006ZM83.379 14.169L82.5774 13.5711L82.5759 13.5732L83.379 14.169ZM84.9969 12.8168L85.4876 13.6881L85.4909 13.6862L84.9969 12.8168ZM91.9997 13.3842L92.5479 12.5479V12.5479L91.9997 13.3842ZM94.7888 16.7045L95.6951 16.2819L94.7888 16.7045ZM94.7888 26.8828L95.6951 27.3054L95.696 27.3035L94.7888 26.8828ZM92.0118 30.2152L92.5625 31.0499L92.5665 31.0472L92.0118 30.2152ZM85.0572 30.7947L84.5674 31.6666L84.5749 31.6708L85.0572 30.7947ZM83.4031 29.4304L82.6031 30.0304L82.6077 30.0364L83.4031 29.4304ZM82.5096 28.1506L83.3599 27.6242L83.0667 27.1506H82.5096V28.1506ZM82.2682 28.1506V27.1506H81.2682V28.1506H82.2682ZM82.2682 37.9545V38.9545H83.2682V37.9545H82.2682ZM82.8356 25.4339L81.9019 25.792L81.9028 25.7943L82.8356 25.4339ZM84.6346 27.9332L84.0269 28.7274L84.032 28.7313L84.6346 27.9332ZM90.5146 27.8849L91.1335 28.6704L91.1345 28.6696L90.5146 27.8849ZM92.3257 25.3253L91.3911 24.9696L91.3897 24.9734L92.3257 25.3253ZM92.3378 18.2017L91.4011 18.5521L91.4044 18.5607L92.3378 18.2017ZM90.5388 15.7024L89.9248 16.4918L89.9337 16.4986L90.5388 15.7024ZM84.6105 15.6541L85.2026 16.46L85.2079 16.4561L84.6105 15.6541ZM82.8236 18.093L83.756 18.4544L83.7569 18.452L82.8236 18.093ZM80.4187 37.9545V12.4545H78.4187V37.9545H80.4187ZM79.4187 13.4545H82.1716V11.4545H79.4187V13.4545ZM81.1716 12.4545V15.4006H83.1716V12.4545H81.1716ZM82.1716 16.4006H82.5096V14.4006H82.1716V16.4006ZM83.3481 15.9456C83.5414 15.6481 83.8176 15.2561 84.1821 14.7649L82.5759 13.5732C82.1998 14.0801 81.8964 14.5091 81.6712 14.8556L83.3481 15.9456ZM84.1805 14.767C84.4561 14.3976 84.8772 14.0319 85.4876 13.6881L84.5061 11.9455C83.716 12.3905 83.0585 12.9263 82.5774 13.5711L84.1805 14.767ZM85.4909 13.6862C85.9931 13.4008 86.7587 13.2131 87.8704 13.2131V11.2131C86.5674 11.2131 85.4173 11.4278 84.5029 11.9473L85.4909 13.6862ZM87.8704 13.2131C89.2568 13.2131 90.4387 13.5568 91.4515 14.2206L92.5479 12.5479C91.1781 11.6501 89.6072 11.2131 87.8704 11.2131V13.2131ZM91.4515 14.2206C92.4706 14.8885 93.284 15.8438 93.8825 17.1272L95.6951 16.2819C94.9573 14.6997 93.9114 13.4415 92.5479 12.5479L91.4515 14.2206ZM93.8825 17.1272C94.4762 18.4005 94.7909 19.9405 94.7909 21.7756H96.7909C96.7909 19.7148 96.4375 17.8741 95.6951 16.2819L93.8825 17.1272ZM94.7909 21.7756C94.7909 23.6278 94.4758 25.1805 93.8816 26.4621L95.696 27.3035C96.4379 25.7035 96.7909 23.8513 96.7909 21.7756H94.7909ZM93.8825 26.4602C93.2829 27.7459 92.4712 28.7071 91.4571 29.3831L92.5665 31.0472C93.9189 30.1457 94.9584 28.8852 95.6951 27.3054L93.8825 26.4602ZM91.461 29.3805C90.4559 30.0438 89.2868 30.3864 87.9187 30.3864V32.3864C89.6416 32.3864 91.2011 31.9482 92.5625 31.0499L91.461 29.3805ZM87.9187 30.3864C86.8243 30.3864 86.0559 30.2031 85.5395 29.9187L84.5749 31.6708C85.4913 32.1753 86.6306 32.3864 87.9187 32.3864V30.3864ZM85.547 29.9229C84.9167 29.5688 84.4821 29.1965 84.1985 28.8244L82.6077 30.0364C83.0969 30.6785 83.765 31.2158 84.5674 31.6666L85.547 29.9229ZM84.2031 28.8304C83.8251 28.3264 83.547 27.9264 83.3599 27.6242L81.6594 28.6769C81.8909 29.0508 82.2084 29.5041 82.6031 30.0304L84.2031 28.8304ZM82.5096 27.1506H82.2682V29.1506H82.5096V27.1506ZM81.2682 28.1506V37.9545H83.2682V28.1506H81.2682ZM82.2682 36.9545H79.4187V38.9545H82.2682V36.9545ZM81.2199 21.7273C81.2199 23.224 81.4391 24.5849 81.9019 25.792L83.7693 25.0759C83.4112 24.1419 83.2199 23.0317 83.2199 21.7273H81.2199ZM81.9028 25.7943C82.3698 27.0029 83.0714 27.9961 84.0269 28.7274L85.2424 27.1391C84.6202 26.663 84.1225 25.99 83.7684 25.0735L81.9028 25.7943ZM84.032 28.7313C85.0207 29.4778 86.2073 29.8267 87.5324 29.8267V27.8267C86.5715 27.8267 85.8262 27.5799 85.2373 27.1352L84.032 28.7313ZM87.5324 29.8267C88.9074 29.8267 90.1307 29.4605 91.1335 28.6704L89.8957 27.0995C89.3048 27.5651 88.5399 27.8267 87.5324 27.8267V29.8267ZM91.1345 28.6696C92.0982 27.9083 92.8028 26.898 93.2617 25.6772L91.3897 24.9734C91.0437 25.8937 90.5409 26.5898 89.8947 27.1003L91.1345 28.6696ZM93.2603 25.681C93.7198 24.4737 93.9415 23.1516 93.9415 21.7273H91.9415C91.9415 22.9431 91.7526 24.0197 91.3911 24.9696L93.2603 25.681ZM93.9415 21.7273C93.9415 20.3203 93.7242 19.0207 93.2711 17.8427L91.4044 18.5607C91.7563 19.4755 91.9415 20.5263 91.9415 21.7273H93.9415ZM93.2744 17.8514C92.8216 16.6407 92.1159 15.645 91.1439 14.9063L89.9337 16.4986C90.5715 16.9833 91.0652 17.6538 91.4012 18.552L93.2744 17.8514ZM91.1527 14.9131C90.1478 14.1314 88.9171 13.7727 87.5324 13.7727V15.7727C88.5625 15.7727 89.336 16.0338 89.9248 16.4918L91.1527 14.9131ZM87.5324 13.7727C86.1977 13.7727 85.0039 14.1141 84.0131 14.8522L85.2079 16.4561C85.7948 16.0189 86.5489 15.7727 87.5324 15.7727V13.7727ZM84.0184 14.8482C83.054 15.5568 82.3511 16.5357 81.8902 17.7341L83.7569 18.452C84.1009 17.5576 84.5894 16.9105 85.2026 16.46L84.0184 14.8482ZM81.8912 17.7316C81.4346 18.9095 81.2199 20.2482 81.2199 21.7273H83.2199C83.2199 20.4374 83.4076 19.3533 83.756 18.4544L81.8912 17.7316Z" fill="#EFC4F8"/>
<g filter="url(#filter0_d_0_1)">
<line x1="33.6197" y1="3.88588" x2="23.154" y2="36.5817" stroke="white" stroke-width="3" stroke-linecap="square"/>
</g>
<rect x="32.0562" y="1.54793" width="4" height="38.3289" transform="rotate(17.7495 32.0562 1.54793)" stroke="#EFC4F8"/>
<g filter="url(#filter1_d_0_1)">
<line x1="109.62" y1="3.88588" x2="99.154" y2="36.5817" stroke="white" stroke-width="3" stroke-linecap="square"/>
</g>
<rect x="108.056" y="1.54793" width="4" height="38.3289" transform="rotate(17.7495 108.056 1.54793)" stroke="#EFC4F8"/>
<defs>
<filter id="filter0_d_0_1" x="17.2681" y="2" width="22.2375" height="44.4676" filterUnits="userSpaceOnUse" color-interpolation-filters="sRGB">
<feFlood flood-opacity="0" result="BackgroundImageFix"/>
<feColorMatrix in="SourceAlpha" type="matrix" values="0 0 0 0 0 0 0 0 0 0 0 0 0 0 0 0 0 0 127 0" result="hardAlpha"/>
<feOffset dy="4"/>
<feGaussianBlur stdDeviation="2"/>
<feComposite in2="hardAlpha" operator="out"/>
<feColorMatrix type="matrix" values="0 0 0 0 0 0 0 0 0 0 0 0 0 0 0 0 0 0 0.25 0"/>
<feBlend mode="normal" in2="BackgroundImageFix" result="effect1_dropShadow_0_1"/>
<feBlend mode="normal" in="SourceGraphic" in2="effect1_dropShadow_0_1" result="shape"/>
</filter>
<filter id="filter1_d_0_1" x="93.2681" y="2" width="22.2375" height="44.4676" filterUnits="userSpaceOnUse" color-interpolation-filters="sRGB">
<feFlood flood-opacity="0" result="BackgroundImageFix"/>
<feColorMatrix in="SourceAlpha" type="matrix" values="0 0 0 0 0 0 0 0 0 0 0 0 0 0 0 0 0 0 127 0" result="hardAlpha"/>
<feOffset dy="4"/>
<feGaussianBlur stdDeviation="2"/>
<feComposite in2="hardAlpha" operator="out"/>
<feColorMatrix type="matrix" values="0 0 0 0 0 0 0 0 0 0 0 0 0 0 0 0 0 0 0.25 0"/>
<feBlend mode="normal" in2="BackgroundImageFix" result="effect1_dropShadow_0_1"/>
<feBlend mode="normal" in="SourceGraphic" in2="effect1_dropShadow_0_1" result="shape"/>
</filter>
</defs>
</svg>


