<svg width="63" height="41" viewBox="0 0 63 41" fill="none" xmlns="http://www.w3.org/2000/svg">
<path d="M39.55 29.3C39.55 28.7951 39.5291 28.3076 39.4888 27.8375M39.4888 27.8375C38.3995 15.1625 23.1505 15.1625 22.0612 27.8375M39.4888 27.8375H22.0612M39.4888 27.8375H39.55M22.0612 27.8375C22.0209 28.3076 22 28.7951 22 29.3M22.0612 27.8375H22M38.575 9.8C38.575 14.1077 35.0827 17.6 30.775 17.6C26.4673 17.6 22.975 14.1077 22.975 9.8C22.975 5.49225 26.4673 2 30.775 2C35.0827 2 38.575 5.49225 38.575 9.8Z" stroke="#DEC4E3" stroke-width="2.925"/>
<path d="M60.55 40.3C60.55 39.7951 60.5291 39.3076 60.4888 38.8375M60.4888 38.8375C59.3995 26.1625 44.1505 26.1625 43.0612 38.8375M60.4888 38.8375H43.0612M60.4888 38.8375H60.55M43.0612 38.8375C43.0209 39.3076 43 39.7951 43 40.3M43.0612 38.8375H43M59.575 20.8C59.575 25.1077 56.0827 28.6 51.775 28.6C47.4673 28.6 43.975 25.1077 43.975 20.8C43.975 16.4923 47.4673 13 51.775 13C56.0827 13 59.575 16.4923 59.575 20.8Z" stroke="#DEC4E3" stroke-width="2.925"/>
<path d="M19.55 40.3C19.55 39.7951 19.5291 39.3076 19.4888 38.8375M19.4888 38.8375C18.3995 26.1625 3.1505 26.1625 2.06123 38.8375M19.4888 38.8375H2.06123M19.4888 38.8375H19.55M2.06123 38.8375C2.02087 39.3076 2 39.7951 2 40.3M2.06123 38.8375H2M18.575 20.8C18.575 25.1077 15.0827 28.6 10.775 28.6C6.46725 28.6 2.975 25.1077 2.975 20.8C2.975 16.4923 6.46725 13 10.775 13C15.0827 13 18.575 16.4923 18.575 20.8Z" stroke="#DEC4E3" stroke-width="2.925"/>
</svg>

