<svg width="30" height="30" viewBox="0 0 30 30" fill="none" xmlns="http://www.w3.org/2000/svg">
<path d="M14.9283 1.5625C12.0428 1.56249 9.78149 1.56248 8.01714 1.79969C6.21121 2.04249 4.78619 2.54916 3.66768 3.66768C2.54916 4.78619 2.04249 6.21121 1.79969 8.01714C1.56248 9.78149 1.56249 12.0428 1.5625 14.9283V15.0718C1.56249 17.9573 1.56248 20.2185 1.79969 21.9829C2.04249 23.7888 2.54916 25.2139 3.66768 26.3324C4.78619 27.4509 6.21121 27.9575 8.01714 28.2004C9.78149 28.4375 12.0428 28.4375 14.9283 28.4375H15.0718C17.9573 28.4375 20.2185 28.4375 21.9829 28.2004C23.7888 27.9575 25.2139 27.4509 26.3324 26.3324C27.4509 25.2139 27.9575 23.7888 28.2004 21.9829C28.4375 20.2185 28.4375 17.9573 28.4375 15.0718V13.125C28.4375 12.6073 28.0178 12.1875 27.5 12.1875C26.9823 12.1875 26.5625 12.6073 26.5625 13.125V15C26.5625 17.9728 26.5605 20.108 26.342 21.733C26.1273 23.331 25.7186 24.2944 25.0065 25.0065C24.2944 25.7186 23.331 26.1273 21.733 26.342C20.108 26.5605 17.9728 26.5625 15 26.5625C12.0272 26.5625 9.89195 26.5605 8.26698 26.342C6.66896 26.1273 5.70556 25.7186 4.9935 25.0065C4.28143 24.2944 3.87281 23.331 3.65796 21.733C3.43949 20.108 3.4375 17.9728 3.4375 15C3.4375 12.0272 3.43949 9.89195 3.65796 8.26698C3.87281 6.66896 4.28143 5.70556 4.9935 4.9935C5.70556 4.28143 6.66896 3.87281 8.26698 3.65796C9.89195 3.43949 12.0272 3.4375 15 3.4375H16.875C17.3928 3.4375 17.8125 3.01776 17.8125 2.5C17.8125 1.98224 17.3928 1.5625 16.875 1.5625H14.9283Z" fill="#DEC4E3"/>
<path fill-rule="evenodd" clip-rule="evenodd" d="M23.75 1.5625C21.1611 1.5625 19.0625 3.66116 19.0625 6.25C19.0625 8.83884 21.1611 10.9375 23.75 10.9375C26.3389 10.9375 28.4375 8.83884 28.4375 6.25C28.4375 3.66116 26.3389 1.5625 23.75 1.5625ZM20.9375 6.25C20.9375 4.6967 22.1968 3.4375 23.75 3.4375C25.3032 3.4375 26.5625 4.6967 26.5625 6.25C26.5625 7.8033 25.3032 9.0625 23.75 9.0625C22.1968 9.0625 20.9375 7.8033 20.9375 6.25Z" fill="#DEC4E3"/>
<path d="M7.8125 17.5C7.8125 16.9822 8.23224 16.5625 8.75 16.5625H20C20.5178 16.5625 20.9375 16.9822 20.9375 17.5C20.9375 18.0178 20.5178 18.4375 20 18.4375H8.75C8.23224 18.4375 7.8125 18.0178 7.8125 17.5Z" fill="#DEC4E3"/>
<path d="M8.75 20.9375C8.23224 20.9375 7.8125 21.3572 7.8125 21.875C7.8125 22.3928 8.23224 22.8125 8.75 22.8125H16.25C16.7678 22.8125 17.1875 22.3928 17.1875 21.875C17.1875 21.3572 16.7678 20.9375 16.25 20.9375H8.75Z" fill="#DEC4E3"/>
</svg>

