<svg width="92" height="74" viewBox="0 0 92 84" fill="none" xmlns="http://www.w3.org/2000/svg">
<path d="M20 74C20 73.4821 19.9785 72.9821 19.9371 72.5M19.9371 72.5C18.82 59.5 3.18003 59.5 2.06289 72.5M19.9371 72.5H2.06289M19.9371 72.5H20M2.06289 72.5C2.02146 72.9821 2 73.4821 2 74M2.06289 72.5H2M19 54C19 58.4183 15.4183 62 11 62C6.58172 62 3 58.4183 3 54C3 49.5817 6.58172 46 11 46C15.4183 46 19 49.5817 19 54Z" stroke="#DEC4E3" stroke-width="3"/>
<path d="M27.6669 30.0678C24.5406 25.9616 24.0033 22.6174 26.055 20.0348C28.1066 17.4522 31.1835 17.0366 35.2857 18.7878C33.0774 13.9631 33.257 10.9458 35.8245 9.73612C38.392 8.5265 42.3822 8.22706 47.7949 8.83782C51.6761 3.95747 55.8413 1.68955 60.2903 2.03408C66.9637 2.55082 71.6478 3.77775 73.6356 12.4903C74.3505 14.2102 83.3544 11.5508 86.6594 16.814C89.9642 22.0775 89.3071 28.9892 86.6594 29.5285C84.0115 30.0678 93.0789 29.0717 89.5213 34.5723C88.276 36.4977 82.761 41.4527 78.9455 42.5577C71.8607 44.6096 64.8673 41.7051 61.2935 40.1051C59.8913 38.3319 54.0449 46.8314 46.2359 46.3596C41.0298 46.045 38.0805 43.3692 37.3884 38.3319C35.1476 40.3903 32.2549 40.9815 28.7102 40.1051C23.3931 38.7907 21.2928 34.2008 24.5552 31.501" stroke="#DEC4E3" stroke-opacity="0.9" stroke-width="2.1" stroke-linecap="round" stroke-linejoin="round"/>
<path d="M30.4766 44.0373C30.6881 43.5593 31.1243 43.2592 31.5883 43.1412C31.8537 43.0738 32.0241 43.062 32.2934 43.0141C32.6772 42.9461 33.3603 43.1393 33.6111 43.2605C34.1053 43.4997 34.3501 43.9316 34.5503 44.4073C34.7237 44.8193 34.8583 45.2718 34.8249 45.7278C34.825 45.9264 34.783 46.1118 34.7428 46.3076C34.4796 47.5871 33.3372 48.1703 32.7253 48.2324C32.0901 48.2967 31.4916 48.1911 30.9498 47.8175C30.8032 47.7162 30.3829 47.3557 30.2445 46.9584C30.0874 46.5075 29.9107 46.0224 30.0512 45.5213C30.1088 45.3164 30.1215 45.0841 30.291 44.9111" stroke="#DEC4E3" stroke-opacity="0.9" stroke-width="2.1" stroke-linecap="round" stroke-linejoin="round"/>
<path d="M24.1985 48.8536C24.3456 48.5096 24.6491 48.2935 24.9718 48.2085C25.1565 48.16 25.275 48.1516 25.4623 48.1171C25.7294 48.068 26.2046 48.2072 26.379 48.2944C26.7228 48.4666 26.8931 48.7776 27.0324 49.1201C27.153 49.4168 27.2466 49.7425 27.2234 50.0707C27.2234 50.2138 27.1943 50.3473 27.1663 50.4882C26.9832 51.4095 26.1885 51.8295 25.7628 51.8742C25.321 51.9204 24.9046 51.8444 24.5277 51.5754C24.4257 51.5025 24.1333 51.243 24.037 50.9569C23.9277 50.6323 23.8048 50.2831 23.9026 49.9223C23.9426 49.7746 23.9515 49.6075 24.0694 49.483" stroke="#DEC4E3" stroke-opacity="0.9" stroke-width="2.1" stroke-linecap="round" stroke-linejoin="round"/>
<path d="M72 33C72 32.7411 71.9893 32.4911 71.9686 32.25M71.9686 32.25C71.41 25.75 63.59 25.75 63.0314 32.25M71.9686 32.25H63.0314M71.9686 32.25H72M63.0314 32.25C63.0107 32.4911 63 32.7411 63 33M63.0314 32.25H63M71.5 23C71.5 25.2091 69.7091 27 67.5 27C65.2909 27 63.5 25.2091 63.5 23C63.5 20.7909 65.2909 19 67.5 19C69.7091 19 71.5 20.7909 71.5 23Z" stroke="#DEC4E3" stroke-width="1.5"/>
<path d="M53 40C53 39.7411 52.9893 39.4911 52.9686 39.25M52.9686 39.25C52.41 32.75 44.59 32.75 44.0314 39.25M52.9686 39.25H44.0314M52.9686 39.25H53M44.0314 39.25C44.0107 39.4911 44 39.7411 44 40M44.0314 39.25H44M52.5 30C52.5 32.2091 50.7091 34 48.5 34C46.2909 34 44.5 32.2091 44.5 30C44.5 27.7909 46.2909 26 48.5 26C50.7091 26 52.5 27.7909 52.5 30Z" stroke="#DEC4E3" stroke-width="1.5"/>
<path d="M41 36C41 35.7411 40.9893 35.4911 40.9686 35.25M40.9686 35.25C40.41 28.75 32.59 28.75 32.0314 35.25M40.9686 35.25H32.0314M40.9686 35.25H41M32.0314 35.25C32.0107 35.4911 32 35.7411 32 36M32.0314 35.25H32M40.5 26C40.5 28.2091 38.7091 30 36.5 30C34.2909 30 32.5 28.2091 32.5 26C32.5 23.7909 34.2909 22 36.5 22C38.7091 22 40.5 23.7909 40.5 26Z" stroke="#DEC4E3" stroke-width="1.5"/>
<path d="M84 36C84 35.7411 83.9893 35.4911 83.9686 35.25M83.9686 35.25C83.41 28.75 75.59 28.75 75.0314 35.25M83.9686 35.25H75.0314M83.9686 35.25H84M75.0314 35.25C75.0107 35.4911 75 35.7411 75 36M75.0314 35.25H75M83.5 26C83.5 28.2091 81.7091 30 79.5 30C77.2909 30 75.5 28.2091 75.5 26C75.5 23.7909 77.2909 22 79.5 22C81.7091 22 83.5 23.7909 83.5 26Z" stroke="#DEC4E3" stroke-width="1.5"/>
<path d="M60 24C60 23.7411 59.9893 23.4911 59.9686 23.25M59.9686 23.25C59.41 16.75 51.59 16.75 51.0314 23.25M59.9686 23.25H51.0314M59.9686 23.25H60M51.0314 23.25C51.0107 23.4911 51 23.7411 51 24M51.0314 23.25H51M59.5 14C59.5 16.2091 57.7091 18 55.5 18C53.2909 18 51.5 16.2091 51.5 14C51.5 11.7909 53.2909 10 55.5 10C57.7091 10 59.5 11.7909 59.5 14Z" stroke="#DEC4E3" stroke-width="1.5"/>
</svg>

