<svg width="31" height="61" viewBox="0 0 31 71" fill="none" xmlns="http://www.w3.org/2000/svg">
<path d="M24.3 60.8C24.3 60.1785 24.2742 59.5785 24.2245 59M24.2245 59C22.884 43.4 4.11603 43.4 2.77546 59M24.2245 59H2.77546M24.2245 59H24.3M2.77546 59C2.72574 59.5785 2.7 60.1785 2.7 60.8M2.77546 59H2.7M23.1 36.8C23.1 42.1019 18.8019 46.4 13.5 46.4C8.19806 46.4 3.9 42.1019 3.9 36.8C3.9 31.4981 8.19806 27.2 13.5 27.2C18.8019 27.2 23.1 31.4981 23.1 36.8Z" stroke="#DEC4E3" stroke-width="3.6"/>
<line x1="30" y1="28.1245" x2="30" y2="12" stroke="#DEC4E3" stroke-width="2"/>
<path d="M19 1.01241C32.1933 0.591878 26.805 11 19 11" stroke="#DEC4E3" stroke-width="1.5"/>
<line x1="20" y1="11.5" x2="20" y2="17.5" stroke="#DEC4E3" stroke-width="2"/>
<line x1="20" y1="20.5" x2="20" y2="22.5" stroke="#DEC4E3" stroke-width="2"/>
<line x1="30" y1="30" x2="30" y2="32" stroke="#DEC4E3" stroke-width="2"/>
<line x1="12" y1="17.1245" x2="12" y2="1" stroke="#DEC4E3" stroke-width="2"/>
<line x1="12" y1="19" x2="12" y2="21" stroke="#DEC4E3" stroke-width="2"/>
</svg>

