<svg width="38" height="37" viewBox="0 0 38 37" fill="none" xmlns="http://www.w3.org/2000/svg">
<path d="M29.7304 5.00789C38.1184 4.74053 34.6927 11.3577 29.7304 11.3577" stroke="#DEC4E3" stroke-width="0.95366"/>
<path d="M30.3662 11.6756V15.4903" stroke="#DEC4E3" stroke-width="1.27155"/>
<path d="M30.3662 17.3976V18.6691" stroke="#DEC4E3" stroke-width="1.27155"/>
<path d="M25.28 15.2515V5" stroke="#DEC4E3" stroke-width="1.27155"/>
<path d="M25.28 16.4439V17.7155" stroke="#DEC4E3" stroke-width="1.27155"/>
<path d="M22.7327 31.542C22.7327 31.1469 22.7163 30.7654 22.6847 30.3976M22.6847 30.3976C21.8325 20.4795 9.90028 20.4795 9.04797 30.3976M22.6847 30.3976H9.04797M22.6847 30.3976H22.7327M9.04797 30.3976C9.01636 30.7654 9 31.1469 9 31.542M9.04797 30.3976H9M21.9698 16.2834C21.9698 19.6542 19.2372 22.3869 15.8664 22.3869C12.4955 22.3869 9.76293 19.6542 9.76293 16.2834C9.76293 12.9126 12.4955 10.18 15.8664 10.18C19.2372 10.18 21.9698 12.9126 21.9698 16.2834Z" stroke="#DEC4E3" stroke-width="2.28879"/>
</svg>

