<svg width="56" height="37" viewBox="0 0 56 37" fill="none" xmlns="http://www.w3.org/2000/svg">
<path d="M33 37C33 36.7411 32.9893 36.4911 32.9686 36.25M32.9686 36.25C32.41 29.75 24.59 29.75 24.0314 36.25M32.9686 36.25H24.0314M32.9686 36.25H33M24.0314 36.25C24.0107 36.4911 24 36.7411 24 37M24.0314 36.25H24M32.5 27C32.5 29.2091 30.7091 31 28.5 31C26.2909 31 24.5 29.2091 24.5 27C24.5 24.7909 26.2909 23 28.5 23C30.7091 23 32.5 24.7909 32.5 27Z" stroke="#DEC4E3" stroke-width="1.5"/>
<path d="M44 32C44 31.7411 43.9893 31.4911 43.9686 31.25M43.9686 31.25C43.41 24.75 35.59 24.75 35.0314 31.25M43.9686 31.25H35.0314M43.9686 31.25H44M35.0314 31.25C35.0107 31.4911 35 31.7411 35 32M35.0314 31.25H35M43.5 22C43.5 24.2091 41.7091 26 39.5 26C37.2909 26 35.5 24.2091 35.5 22C35.5 19.7909 37.2909 18 39.5 18C41.7091 18 43.5 19.7909 43.5 22Z" stroke="#DEC4E3" stroke-width="1.5"/>
<path d="M55 26C55 25.7411 54.9893 25.4911 54.9686 25.25M54.9686 25.25C54.41 18.75 46.59 18.75 46.0314 25.25M54.9686 25.25H46.0314M54.9686 25.25H55M46.0314 25.25C46.0107 25.4911 46 25.7411 46 26M46.0314 25.25H46M54.5 16C54.5 18.2091 52.7091 20 50.5 20C48.2909 20 46.5 18.2091 46.5 16C46.5 13.7909 48.2909 12 50.5 12C52.7091 12 54.5 13.7909 54.5 16Z" stroke="#DEC4E3" stroke-width="1.5"/>
<path d="M44 15C44 14.7411 43.9893 14.4911 43.9686 14.25M43.9686 14.25C43.41 7.75 35.59 7.75 35.0314 14.25M43.9686 14.25H35.0314M43.9686 14.25H44M35.0314 14.25C35.0107 14.4911 35 14.7411 35 15M35.0314 14.25H35M43.5 5C43.5 7.20914 41.7091 9 39.5 9C37.2909 9 35.5 7.20914 35.5 5C35.5 2.79086 37.2909 1 39.5 1C41.7091 1 43.5 2.79086 43.5 5Z" stroke="#DEC4E3" stroke-width="1.5"/>
<path d="M22 15C22 14.7411 21.9893 14.4911 21.9686 14.25M21.9686 14.25C21.41 7.75 13.59 7.75 13.0314 14.25M21.9686 14.25H13.0314M21.9686 14.25H22M13.0314 14.25C13.0107 14.4911 13 14.7411 13 15M13.0314 14.25H13M21.5 5C21.5 7.20914 19.7091 9 17.5 9C15.2909 9 13.5 7.20914 13.5 5C13.5 2.79086 15.2909 1 17.5 1C19.7091 1 21.5 2.79086 21.5 5Z" stroke="#DEC4E3" stroke-width="1.5"/>
<path d="M33 20C33 19.7411 32.9893 19.4911 32.9686 19.25M32.9686 19.25C32.41 12.75 24.59 12.75 24.0314 19.25M32.9686 19.25H24.0314M32.9686 19.25H33M24.0314 19.25C24.0107 19.4911 24 19.7411 24 20M24.0314 19.25H24M32.5 10C32.5 12.2091 30.7091 14 28.5 14C26.2909 14 24.5 12.2091 24.5 10C24.5 7.79086 26.2909 6 28.5 6C30.7091 6 32.5 7.79086 32.5 10Z" stroke="#DEC4E3" stroke-width="1.5"/>
<path d="M10 26C10 25.7411 9.98927 25.4911 9.96856 25.25M9.96856 25.25C9.40999 18.75 1.59001 18.75 1.03144 25.25M9.96856 25.25H1.03144M9.96856 25.25H10M1.03144 25.25C1.01073 25.4911 1 25.7411 1 26M1.03144 25.25H1M9.5 16C9.5 18.2091 7.70914 20 5.5 20C3.29086 20 1.5 18.2091 1.5 16C1.5 13.7909 3.29086 12 5.5 12C7.70914 12 9.5 13.7909 9.5 16Z" stroke="#DEC4E3" stroke-width="1.5"/>
<path d="M21 34C21 33.7411 20.9893 33.4911 20.9686 33.25M20.9686 33.25C20.41 26.75 12.59 26.75 12.0314 33.25M20.9686 33.25H12.0314M20.9686 33.25H21M12.0314 33.25C12.0107 33.4911 12 33.7411 12 34M12.0314 33.25H12M20.5 24C20.5 26.2091 18.7091 28 16.5 28C14.2909 28 12.5 26.2091 12.5 24C12.5 21.7909 14.2909 20 16.5 20C18.7091 20 20.5 21.7909 20.5 24Z" stroke="#DEC4E3" stroke-width="1.5"/>
</svg>

