<svg width="30" height="30" viewBox="0 0 30 30" fill="none" xmlns="http://www.w3.org/2000/svg">
<g clip-path="url(#clip0_22_46)">
<path d="M15 8.63637C13.6249 6.88617 11.5051 5.13597 6.25149 5.00753C5.90641 4.9991 5.625 5.27939 5.625 5.62457C5.625 8.18517 5.625 17.8793 5.625 20.7463C5.625 21.0914 5.90644 21.3625 6.25143 21.3738C11.5051 21.5455 13.6249 23.8748 15 25.625M15 8.63637C16.3751 6.88617 18.4949 5.13597 23.7485 5.00753C24.0936 4.9991 24.375 5.27309 24.375 5.61827C24.375 8.48059 24.375 17.883 24.375 20.7454C24.375 21.0905 24.0936 21.3625 23.7486 21.3738C18.495 21.5455 16.3751 23.8748 15 25.625M15 8.63637V25.625Z" fill="#D9D9D9" fill-opacity="0.2"/>
<path d="M15 8.63637C13.6249 6.88617 11.5051 5.13597 6.25149 5.00753C5.90641 4.9991 5.625 5.27939 5.625 5.62457C5.625 8.18517 5.625 17.8793 5.625 20.7463C5.625 21.0914 5.90644 21.3625 6.25143 21.3738C11.5051 21.5455 13.6249 23.8748 15 25.625M15 8.63637C16.3751 6.88617 18.4949 5.13597 23.7485 5.00753C24.0936 4.9991 24.375 5.27309 24.375 5.61827C24.375 8.48059 24.375 17.883 24.375 20.7454C24.375 21.0905 24.0936 21.3625 23.7486 21.3738C18.495 21.5455 16.3751 23.8748 15 25.625M15 8.63637V25.625" stroke="#DEC4E3" stroke-width="2" stroke-linejoin="round"/>
<path d="M24.0441 7.5H26.875C27.2201 7.5 27.5 7.77982 27.5 8.125V24.4237C27.5 24.9295 26.9041 25.2655 26.4419 25.0601C25.448 24.6185 23.7894 24.079 21.6176 24.079C17.9411 24.079 15 26.25 15 26.25C15 26.25 12.0588 24.079 8.38235 24.079C6.21056 24.079 4.55195 24.6185 3.55809 25.0601C3.09585 25.2655 2.5 24.9295 2.5 24.4237V8.125C2.5 7.77982 2.77983 7.5 3.125 7.5H5.95589" stroke="#DEC4E3" stroke-width="2" stroke-linejoin="round"/>
</g>
<defs>
<clipPath id="clip0_22_46">
<rect width="30" height="30" fill="white"/>
</clipPath>
</defs>
</svg>

