<svg width="30" height="30" viewBox="0 0 30 30" fill="none" xmlns="http://www.w3.org/2000/svg">
<path d="M26.5 14C26.5 14.3157 26.2907 14.7115 25.6843 15.1526C25.0888 15.5859 24.1949 15.9968 23.0453 16.3505C20.7524 17.0561 17.5543 17.5 14 17.5C10.4457 17.5 7.24762 17.0561 4.95465 16.3505C3.80511 15.9968 2.91125 15.5859 2.31574 15.1526C1.70929 14.7115 1.5 14.3157 1.5 14C1.5 13.6843 1.70929 13.2885 2.31574 12.8474C2.91125 12.4141 3.80511 12.0032 4.95465 11.6495C7.24762 10.9439 10.4457 10.5 14 10.5C17.5543 10.5 20.7524 10.9439 23.0453 11.6495C24.1949 12.0032 25.0888 12.4141 25.6843 12.8474C26.2907 13.2885 26.5 13.6843 26.5 14Z" fill="#A0A0A0" fill-opacity="0.2" stroke="#DEC4E3"/>
<path d="M1.5 14C2.5 33 25.5 33 26.5 14" stroke="#DEC4E3"/>
<path d="M26 17.5C30.0001 20 27.9999 23.5 23.5 23.5" stroke="#DEC4E3"/>
<path d="M5.5773 2C3.5773 3.5 7.57727 6.5 5.5773 8" stroke="#DEC4E3" stroke-linecap="round"/>
<path d="M10.5773 1C8.5773 2.5 12.5773 5.5 10.5773 7" stroke="#DEC4E3" stroke-linecap="round"/>
<path d="M14.5773 1C12.5773 2.5 16.5773 5.5 14.5773 7" stroke="#DEC4E3" stroke-linecap="round"/>
<path d="M18.5773 1C16.5773 2.5 20.5773 5.5 18.5773 7" stroke="#DEC4E3" stroke-linecap="round"/>
<path d="M23.5773 2C21.5773 3.5 25.5773 6.5 23.5773 8" stroke="#DEC4E3" stroke-linecap="round"/>
</svg>

