<svg width="30" height="30" viewBox="0 0 30 30" fill="none" xmlns="http://www.w3.org/2000/svg">
<path d="M27.9199 10.2861C27.961 8.84473 27.3457 7.49414 26.2266 6.58301L23.9619 4.73731C23.8037 4.6084 23.5957 4.55274 23.3965 4.58203C23.1944 4.61133 23.0157 4.72852 22.9014 4.89844L12.7647 20.1797L11.2793 18.2783C11.0625 18 10.6758 17.9209 10.3653 18.0879L2.81546 22.1689C2.08303 22.5645 1.72854 23.373 1.93069 24.1787C2.13577 24.9873 2.83303 25.5293 3.66507 25.5293H14.6221C16.6553 25.5293 18.5039 24.3311 19.333 22.4736L20.5166 19.8252C21.3662 17.918 22.7139 16.2627 24.4102 15.041L24.5303 14.9531L24.8526 24.8027C24.8643 25.125 25.128 25.3799 25.4502 25.3799C25.7696 25.3799 26.0332 25.1279 26.0479 24.8086L26.5518 13.4209C27.3897 12.5947 27.8819 11.4873 27.9199 10.2861ZM23.5606 13.8662C21.6563 15.2373 20.1475 17.0947 19.1924 19.2363L18.0117 21.8848C17.417 23.2207 16.0869 24.082 14.6221 24.082H3.66507C3.43362 24.082 3.35745 23.9209 3.33401 23.8242C3.31057 23.7275 3.29885 23.5518 3.501 23.4404L10.5176 19.6523L12.2461 21.8613C12.3897 22.0459 12.6123 22.1543 12.8438 22.1396C13.0752 22.1309 13.2891 22.0107 13.418 21.8174L23.666 6.36621L25.3125 7.70508C26.0801 8.3291 26.502 9.25488 26.4727 10.2451C26.4434 11.2354 25.9658 12.1318 25.1631 12.7119L23.5606 13.8662Z" fill="#DEC4E3"/>
</svg>

