<svg width="44" height="20" viewBox="0 0 44 20" fill="none" xmlns="http://www.w3.org/2000/svg">
<path fill-rule="evenodd" clip-rule="evenodd" d="M7.12251 6H9.19511C9.19511 3.79087 7.8192 2 6.12194 2C4.42467 2 3.04877 3.79087 3.04877 6H5.12137C5.12137 5.28074 5.56933 4.69767 6.12194 4.69767C6.67454 4.69767 7.12251 5.28074 7.12251 6Z" fill="#DEC4E3"/>
<path fill-rule="evenodd" clip-rule="evenodd" d="M5.12139 15H3.04879C3.04879 17.2091 4.4247 19 6.12196 19C7.81923 19 9.19513 17.2091 9.19513 15H7.12253C7.12253 15.7193 6.67456 16.3023 6.12196 16.3023C5.56935 16.3023 5.12139 15.7193 5.12139 15Z" fill="#DEC4E3"/>
<line x1="4.04877" y1="6" x2="4.04877" y2="15" stroke="#DEC4E3" stroke-width="2"/>
<line x1="8.1463" y1="6" x2="8.1463" y2="15" stroke="#DEC4E3" stroke-width="2"/>
<path fill-rule="evenodd" clip-rule="evenodd" d="M38.8786 6H40.9512C40.9512 3.79087 39.5753 2 37.878 2C36.1808 2 34.8049 3.79087 34.8049 6H36.8775C36.8775 5.28074 37.3254 4.69767 37.878 4.69767C38.4306 4.69767 38.8786 5.28074 38.8786 6Z" fill="#DEC4E3"/>
<path fill-rule="evenodd" clip-rule="evenodd" d="M36.8775 15H34.8049C34.8049 17.2091 36.1808 19 37.8781 19C39.5753 19 40.9512 17.2091 40.9512 15H38.8786C38.8786 15.7193 38.4307 16.3023 37.8781 16.3023C37.3255 16.3023 36.8775 15.7193 36.8775 15Z" fill="#DEC4E3"/>
<line x1="35.8049" y1="6" x2="35.8049" y2="15" stroke="#DEC4E3" stroke-width="2"/>
<line x1="39.9024" y1="6" x2="39.9024" y2="15" stroke="#DEC4E3" stroke-width="2"/>
<path fill-rule="evenodd" clip-rule="evenodd" d="M33.7567 4.70588H35.8293C35.8293 2.1069 34.4534 0 32.7561 0C31.0588 0 29.6829 2.1069 29.6829 4.70588H31.7555C31.7555 3.85969 32.2035 3.17373 32.7561 3.17373C33.3087 3.17373 33.7567 3.85969 33.7567 4.70588Z" fill="#DEC4E3"/>
<path fill-rule="evenodd" clip-rule="evenodd" d="M31.7555 15.2941H29.6829C29.6829 17.8931 31.0589 20 32.7561 20C34.4534 20 35.8293 17.8931 35.8293 15.2941H33.7567C33.7567 16.1403 33.3087 16.8263 32.7561 16.8263C32.2035 16.8263 31.7555 16.1403 31.7555 15.2941Z" fill="#DEC4E3"/>
<line x1="30.6829" y1="4.70588" x2="30.6829" y2="15.2941" stroke="#DEC4E3" stroke-width="2"/>
<line x1="34.7805" y1="4.70588" x2="34.7805" y2="15.2941" stroke="#DEC4E3" stroke-width="2"/>
<path fill-rule="evenodd" clip-rule="evenodd" d="M11.2201 4.70588H13.2927C13.2927 2.1069 11.9168 0 10.2195 0C8.52227 0 7.14636 2.1069 7.14636 4.70588H9.21897C9.21897 3.85969 9.66693 3.17373 10.2195 3.17373C10.7721 3.17373 11.2201 3.85969 11.2201 4.70588Z" fill="#DEC4E3"/>
<path fill-rule="evenodd" clip-rule="evenodd" d="M9.21899 15.2941H7.14638C7.14638 17.8931 8.52229 20 10.2196 20C11.9168 20 13.2927 17.8931 13.2927 15.2941H11.2201C11.2201 16.1403 10.7722 16.8263 10.2196 16.8263C9.66695 16.8263 9.21899 16.1403 9.21899 15.2941Z" fill="#DEC4E3"/>
<line x1="8.14636" y1="4.70588" x2="8.14636" y2="15.2941" stroke="#DEC4E3" stroke-width="2"/>
<line x1="12.2439" y1="4.70588" x2="12.2439" y2="15.2941" stroke="#DEC4E3" stroke-width="2"/>
<line x1="30" y1="10.5" x2="12" y2="10.5" stroke="#DEC4E3" stroke-width="3"/>
<line x1="41.5" y1="10.5" x2="42.5" y2="10.5" stroke="#DEC4E3" stroke-width="3" stroke-linecap="round"/>
<line x1="1.5" y1="10.5" x2="2.5" y2="10.5" stroke="#DEC4E3" stroke-width="3" stroke-linecap="round"/>
</svg>

