<svg width="30" height="30" viewBox="0 0 30 30" fill="none" xmlns="http://www.w3.org/2000/svg">
<path d="M27.5 23.5C27.5 23.9698 27.3033 24.3794 26.8104 24.7783C26.2867 25.2022 25.462 25.5786 24.3306 25.881C22.0743 26.4841 18.9316 26.7089 15.5 26.7089C12.0684 26.7089 8.92565 26.4841 6.66938 25.881C5.53802 25.5786 4.71333 25.2022 4.18958 24.7783C3.69666 24.3794 3.5 23.9698 3.5 23.5C3.5 23.0405 3.67894 22.6958 4.13772 22.3732C4.64953 22.0132 5.4813 21.712 6.68126 21.4908C9.07359 21.0499 12.4753 21 16.5 21C19.9415 21 22.8393 21.3701 24.8428 21.9594C25.8508 22.2558 26.5723 22.5906 27.0199 22.9172C27.4785 23.2518 27.5 23.4589 27.5 23.5Z" stroke="#DEC4E3" stroke-width="2"/>
<line x1="28" y1="16" x2="2" y2="16" stroke="#DEC4E3" stroke-width="2"/>
<path d="M27 15C27 0.925625 3 -0.24724 3 15" stroke="#DEC4E3" stroke-width="2"/>
<path d="M17 2.00003C17 2.55232 15.7364 3 15 3C14.2636 3 13 2.55232 13 2.00003C13 1.44775 14.2636 1 15 1C15.7364 1 17 1.44775 17 2.00003Z" fill="#DEC4E3"/>
<path d="M14 7C10.7692 7 8.10267 8.56034 7 11" stroke="#DEC4E3" stroke-linecap="round"/>
</svg>

