<svg width="30" height="30" viewBox="0 0 30 30" fill="none" xmlns="http://www.w3.org/2000/svg">
<path fill-rule="evenodd" clip-rule="evenodd" d="M15 30C23.2842 30 30 23.2842 30 15C30 6.71571 23.2842 0 15 0C6.71574 0 0 6.71571 0 15C0 23.2842 6.71574 30 15 30ZM2.76389 15.8249C2.84554 17.0542 3.10839 18.2342 3.52594 19.338L9.08656 20.349L10.6136 18.8219L8.52918 14.6531L6.8183 13.7976L2.76389 15.8249ZM5.23593 22.4209C6.47499 24.0487 8.1118 25.3572 10.0014 26.2017L8.59228 23.0311L5.23593 22.4209ZM13.4126 27.1616C13.9321 27.2287 14.462 27.2633 15 27.2633C15.5381 27.2633 16.068 27.2287 16.5877 27.1615L18.8281 22.1205L17.1626 20.4548H12.8377L11.172 22.1205L13.4126 27.1616ZM19.9988 26.2016C21.8884 25.3571 23.525 24.0486 24.764 22.4209L21.408 23.0311L19.9988 26.2016ZM2.95578 12.6797L5.27688 11.5192L4.65524 8.41098C3.83786 9.69158 3.25176 11.1341 2.95578 12.6797ZM6.91085 5.78258L8.02466 11.3516L9.40161 12.0401L13.6365 8.86395V6.97945L8.66837 4.4954C8.04401 4.87253 7.45601 5.30375 6.91085 5.78258ZM11.9922 3.10814L15.0001 4.6121L18.0079 3.10818C17.0454 2.86549 16.0379 2.73659 15 2.73659C13.9623 2.73659 12.9547 2.86548 11.9922 3.10814ZM21.3318 4.49547L16.3638 6.97945V8.86395L20.5987 12.0401L21.9755 11.3516L23.0894 5.78274C22.5442 5.30389 21.9562 4.87262 21.3318 4.49547ZM25.345 8.41125L24.7234 11.5192L27.0442 12.6795C26.7483 11.1341 26.1622 9.69176 25.345 8.41125ZM27.2362 15.8248L23.182 13.7976L21.471 14.6531L19.3867 18.8219L20.9137 20.349L26.474 19.338C26.8916 18.2342 27.1545 17.0542 27.2362 15.8248ZM11.2742 14.0448L15.0001 11.2503L18.726 14.0448L16.8847 17.7276H13.1156L11.2742 14.0448Z" fill="#DEC4E3"/>
</svg>

