<svg width="30" height="30" viewBox="0 0 30 30" fill="none" xmlns="http://www.w3.org/2000/svg">
<rect x="2" y="9" width="26" height="13" rx="2" stroke="#DEC4E3" stroke-width="2"/>
<circle cx="21" cy="13" r="1" fill="#DEC4E3"/>
<circle cx="23" cy="15" r="1" fill="#DEC4E3"/>
<circle cx="19" cy="15" r="1" fill="#DEC4E3"/>
<circle cx="21" cy="17" r="1" fill="#DEC4E3"/>
<path d="M6.76777 14.6025C7.48643 14.6025 8.06903 14.02 8.06903 13.3013L8.06904 12.4665C8.06904 12.2089 8.2779 12 8.53553 12V12C8.79317 12 9.00203 12.2089 9.00202 12.4665L9.00202 13.3013C9.00201 14.0199 9.58461 14.6025 10.3033 14.6025L11.1381 14.6025C11.3957 14.6025 11.6046 14.8114 11.6046 15.069V15.069C11.6046 15.3267 11.3957 15.5355 11.1381 15.5355L10.3033 15.5355C9.58461 15.5355 9.00201 16.1181 9.00202 16.8368L9.00202 17.6716C9.00202 17.9292 8.79317 18.1381 8.53553 18.1381V18.1381C8.2779 18.1381 8.06904 17.9292 8.06904 17.6716L8.06903 16.8368C8.06903 16.1181 7.48643 15.5355 6.76776 15.5355L5.93299 15.5355C5.67535 15.5355 5.4665 15.3267 5.4665 15.069V15.069C5.4665 14.8114 5.67535 14.6025 5.93299 14.6025L6.76777 14.6025Z" fill="#DEC4E3"/>
<line x1="7" y1="8" x2="9" y2="8" stroke="#DEC4E3" stroke-width="2" stroke-linecap="round"/>
<line x1="22" y1="8" x2="24" y2="8" stroke="#DEC4E3" stroke-width="2" stroke-linecap="round"/>
</svg>

