<svg width="30" height="30" viewBox="0 0 30 30" fill="none" xmlns="http://www.w3.org/2000/svg">
<g clip-path="url(#clip0_15_27)">
<path d="M0 15C0 12.98 0.4 11.04 1.2 9.18C2 7.32 3.06 5.72 4.38 4.38C5.7 3.04 7.3 1.98 9.18 1.2C11.06 0.42 13 0.02 15 0C17.04 0 18.99 0.4 20.85 1.2C22.71 2 24.3 3.06 25.62 4.38C26.94 5.7 28 7.3 28.8 9.18C29.6 11.06 30 13 30 15C30 17 29.6 18.95 28.8 20.85C28 22.75 26.94 24.34 25.62 25.62C24.3 26.9 22.71 27.97 20.85 28.83C18.99 29.69 17.04 30.08 15 30C12.96 30 11.02 29.61 9.18 28.83C7.34 28.05 5.74 26.98 4.38 25.62C3.02 24.26 1.96 22.67 1.2 20.85C0.44 19.03 0.04 17.08 0 15ZM3.75 15C3.75 17.04 4.25 18.93 5.25 20.67C6.25 22.41 7.62 23.77 9.36 24.75C11.1 25.73 12.98 26.23 15 26.25C17.02 26.27 18.9 25.77 20.64 24.75C22.38 23.73 23.75 22.37 24.75 20.67C25.75 18.97 26.25 17.08 26.25 15C26.25 12.92 25.75 11.04 24.75 9.36C23.75 7.68 22.38 6.32 20.64 5.28C18.9 4.24 17.02 3.73 15 3.75C12.98 3.77 11.1 4.28 9.36 5.28C7.62 6.28 6.25 7.64 5.25 9.36C4.25 11.08 3.75 12.96 3.75 15ZM5.64 15C5.64 13.74 5.88 12.53 6.36 11.37C6.84 10.21 7.51 9.21 8.37 8.37C9.23 7.53 10.23 6.87 11.37 6.39C12.51 5.91 13.72 5.66 15 5.64V7.5C12.94 7.5 11.17 8.24 9.69 9.72C8.21 11.2 7.48 12.96 7.5 15H5.64ZM9.39 15C9.39 13.46 9.93 12.14 11.01 11.04C12.09 9.94 13.42 9.39 15 9.39C16.58 9.39 17.91 9.94 18.99 11.04C20.07 12.14 20.62 13.46 20.64 15C20.66 16.54 20.11 17.87 18.99 18.99C17.87 20.11 16.54 20.66 15 20.64C13.46 20.62 12.13 20.07 11.01 18.99C9.89 17.91 9.35 16.58 9.39 15ZM13.14 15C13.14 15.52 13.32 15.97 13.68 16.35C14.04 16.73 14.48 16.91 15 16.89C15.52 16.87 15.96 16.69 16.32 16.35C16.68 16.01 16.87 15.56 16.89 15C16.91 14.44 16.72 14 16.32 13.68C15.92 13.36 15.48 13.18 15 13.14C14.52 13.1 14.08 13.28 13.68 13.68C13.28 14.08 13.1 14.52 13.14 15ZM15 24.39V22.5C17.08 22.5 18.85 21.77 20.31 20.31C21.77 18.85 22.5 17.08 22.5 15H24.39C24.39 16.7 23.97 18.27 23.13 19.71C22.29 21.15 21.15 22.29 19.71 23.13C18.27 23.97 16.7 24.39 15 24.39Z" fill="#DEC4E3"/>
</g>
<defs>
<clipPath id="clip0_15_27">
<rect width="30" height="30" fill="white"/>
</clipPath>
</defs>
</svg>

