<svg width="30" height="30" viewBox="0 0 30 30" fill="none" xmlns="http://www.w3.org/2000/svg">
<rect x="2" y="7" width="26" height="16" rx="1" fill="#D9D9D9" fill-opacity="0.1" stroke="#DEC4E3" stroke-width="2"/>
<path d="M15.5 14.5C15.5 17.2614 13.2614 19.5 10.5 19.5C7.73858 19.5 5.5 17.2614 5.5 14.5C5.5 11.7386 7.73858 9.5 10.5 9.5C13.2614 9.5 15.5 11.7386 15.5 14.5Z" fill="#D9D9D9" fill-opacity="0.1" stroke="#DEC4E3"/>
<path d="M11.5 14.5C11.5 15.0523 11.0523 15.5 10.5 15.5C9.94772 15.5 9.5 15.0523 9.5 14.5C9.5 13.9477 9.94772 13.5 10.5 13.5C11.0523 13.5 11.5 13.9477 11.5 14.5Z" fill="#D9D9D9" fill-opacity="0.1" stroke="#DEC4E3"/>
<path d="M23.5 11C23.5 11.057 23.4654 11.1697 23.2833 11.2911C23.1048 11.4101 22.8293 11.5 22.5 11.5C22.1707 11.5 21.8952 11.4101 21.7167 11.2911C21.5346 11.1697 21.5 11.057 21.5 11C21.5 10.943 21.5346 10.8303 21.7167 10.7089C21.8952 10.5899 22.1707 10.5 22.5 10.5C22.8293 10.5 23.1048 10.5899 23.2833 10.7089C23.4654 10.8303 23.5 10.943 23.5 11Z" fill="#D9D9D9" fill-opacity="0.1" stroke="#DEC4E3"/>
<path d="M22 19.5C21.7238 19.5 21.5 19.7239 21.5 20C21.5 20.2761 21.7238 20.5 22 20.5L22 19.5ZM22.0069 11.0828C22.285 12.7397 22.5308 14.9597 22.5232 16.7534C22.5194 17.6564 22.4511 18.4142 22.308 18.9312C22.236 19.1916 22.1555 19.3508 22.0866 19.4359C22.0289 19.5071 22.0047 19.5 22 19.5L22 20.5C22.3703 20.5 22.6604 20.3163 22.8637 20.0653C23.0557 19.8282 23.1827 19.5198 23.2718 19.1979C23.4509 18.5506 23.5192 17.6862 23.5232 16.7577C23.5311 14.8885 23.2769 12.6084 22.9931 10.9172L22.0069 11.0828Z" fill="#DEC4E3"/>
</svg>

