<svg width="30" height="30" viewBox="0 0 30 30" fill="none" xmlns="http://www.w3.org/2000/svg">
<path d="M26.0859 28.6761C26.0859 28.4416 26.0527 28.2152 26.0364 27.997M26.0364 27.997C25.5971 22.1117 19.4466 22.1117 19.0073 27.997M26.0364 27.997H19.0073M26.0364 27.997H26.0859M19.0073 27.997C18.991 28.2152 19.0072 28.4416 19.0072 28.6761M25.6926 19.6217C25.6926 21.622 24.2841 23.2435 22.5465 23.2435C20.809 23.2435 19.4005 21.622 19.4005 19.6217C19.4005 17.6215 20.809 16 22.5465 16C24.2841 16 25.6926 17.6215 25.6926 19.6217Z" stroke="#DEC4E3" stroke-width="1.8"/>
<path d="M4.31636 10.8545C3.43455 9.55911 3.28299 8.50412 3.8617 7.68939C4.44038 6.87467 5.30827 6.74356 6.46535 7.29601C5.84247 5.77397 5.89312 4.82211 6.61732 4.44049C7.34152 4.0589 8.46701 3.96443 9.99373 4.15711C11.0885 2.61752 12.2633 1.90206 13.5182 2.01075C15.4005 2.17377 16.7218 2.56082 17.2824 5.30935C17.4841 5.85192 20.0238 5.01297 20.956 6.67334C21.8881 8.3338 21.7028 10.5142 20.956 10.6843C20.2091 10.8545 22.7667 10.5402 21.7632 12.2755C21.412 12.8829 19.8564 14.446 18.7802 14.7946C16.7818 15.4419 14.8092 14.5257 13.8012 14.0209C13.4057 13.4615 11.7566 16.1429 9.554 15.994C8.08555 15.8948 7.25366 15.0506 7.05844 13.4615C6.42639 14.1109 5.61047 14.2974 4.61064 14.0209C3.11088 13.6063 2.51846 12.1583 3.43867 11.3066" stroke="#DEC4E3" stroke-opacity="0.9" stroke-width="1.85" stroke-linecap="round" stroke-linejoin="round"/>
<path d="M12.2898 17.2896C12.3636 17.0588 12.5158 16.9139 12.6778 16.8569C12.7704 16.8244 12.8298 16.8187 12.9238 16.7956C13.0577 16.7627 13.2961 16.856 13.3836 16.9145C13.556 17.03 13.6415 17.2386 13.7113 17.4683C13.7718 17.6673 13.8188 17.8858 13.8071 18.106C13.8072 18.2019 13.7925 18.2914 13.7785 18.386C13.6867 19.0038 13.288 19.2854 13.0745 19.3154C12.8529 19.3465 12.644 19.2955 12.455 19.1151C12.4038 19.0662 12.2571 18.8921 12.2088 18.7002C12.154 18.4825 12.0924 18.2482 12.1414 18.0063C12.1615 17.9073 12.1659 17.7951 12.2251 17.7116" stroke="#DEC4E3" stroke-opacity="0.9" stroke-linecap="round" stroke-linejoin="round"/>
<path d="M15.2904 19.2353C15.3494 19.0815 15.4712 18.9849 15.6007 18.9468C15.6748 18.9252 15.7224 18.9214 15.7975 18.906C15.9047 18.884 16.0954 18.9463 16.1654 18.9853C16.3034 19.0623 16.3717 19.2013 16.4276 19.3545C16.476 19.4871 16.5135 19.6327 16.5042 19.7795C16.5042 19.8435 16.4926 19.9032 16.4813 19.9662C16.4079 20.3781 16.0889 20.5659 15.9181 20.5859C15.7408 20.6066 15.5737 20.5726 15.4225 20.4523C15.3816 20.4197 15.2642 20.3037 15.2256 20.1757C15.1817 20.0306 15.1324 19.8745 15.1717 19.7131C15.1877 19.6471 15.1913 19.5724 15.2386 19.5167" stroke="#DEC4E3" stroke-opacity="0.9" stroke-linecap="round" stroke-linejoin="round"/>
<path d="M11.9444 10.7734V11.4444C11.9444 11.7513 12.1932 11.5 12.5 11.5C12.8068 11.5 13.0556 11.7513 13.0556 11.4444V10.7734M12.5 6V7M15 7L14.3135 7.73217M10 7L10.6098 7.73217M10 9.5H9M16 9.5H15M13.8889 9.50006C13.8889 10.2671 13.2671 10.889 12.5 10.889C11.7329 10.889 11.1111 10.2671 11.1111 9.50006C11.1111 8.73298 11.7329 8.11114 12.5 8.11114C13.2671 8.11114 13.8889 8.73298 13.8889 9.50006Z" stroke="#DEC4E3" stroke-linecap="round" stroke-linejoin="round"/>
</svg>

