<svg width="30" height="31" viewBox="0 0 30 31" fill="none" xmlns="http://www.w3.org/2000/svg">
<path d="M11.5378 15C12.2356 15 12.5845 15.2198 12.5845 15.6595V19.2868C12.5845 19.5067 12.4973 19.7265 12.3229 19.9463L7.35108 27.6956C7.24313 27.7407 7.15458 27.802 7.09332 27.8739C7.03206 27.9458 7 28.0262 7 28.1078C7 28.1894 7.03206 28.2698 7.09332 28.3417C7.15458 28.4136 7.24313 28.4749 7.35108 28.52H23.0514C23.1594 28.4749 23.2479 28.4136 23.3092 28.3417C23.3705 28.2698 23.4025 28.1894 23.4025 28.1078C23.4025 28.0262 23.3705 27.9458 23.3092 27.8739C23.2479 27.802 23.1594 27.7407 23.0514 27.6956L18.0797 19.9463C17.9052 19.7265 17.818 19.5067 17.818 19.2868V15.6595C17.818 15.2198 18.1669 15 18.8647 15" stroke="#DEC4E3" stroke-width="1.92"/>
<path d="M15.5 12.55C15.5 13.1455 15.037 13.6 14.5 13.6C13.963 13.6 13.5 13.1455 13.5 12.55C13.5 11.9545 13.963 11.5 14.5 11.5C15.037 11.5 15.5 11.9545 15.5 12.55Z" stroke="#DEC4E3"/>
<path d="M18.4465 11.4799C18.6312 12.0277 18.3441 12.6095 17.8294 12.7912C17.3146 12.9728 16.7381 12.6958 16.5535 12.148C16.3688 11.6002 16.6559 11.0184 17.1706 10.8368C17.6854 10.6551 18.2619 10.9321 18.4465 11.4799Z" stroke="#DEC4E3"/>
<circle cx="12.5" cy="5.5" r="1" stroke="#DEC4E3"/>
<path d="M15.5074 9.78013C15.5046 10.3626 15.0439 10.8127 14.5024 10.8099C13.9609 10.8072 13.5046 10.3524 13.5074 9.76997C13.5103 9.18752 13.9709 8.73743 14.5124 8.74018C15.054 8.74293 15.5102 9.19769 15.5074 9.78013Z" stroke="#DEC4E3"/>
<path d="M19.0806 8.00001C19.0806 8.56787 18.6393 9 18.129 9C17.6188 9 17.1774 8.56787 17.1774 8.00001C17.1774 7.43215 17.6188 7.00001 18.129 7.00001C18.6393 7.00001 19.0806 7.43215 19.0806 8.00001ZM21.5 5.00002C21.5 5.56788 21.0586 6.00002 20.5484 6.00002C20.0382 6.00002 19.5968 5.56788 19.5968 5.00002C19.5968 4.43216 20.0382 4.00003 20.5484 4.00003C21.0586 4.00003 21.5 4.43216 21.5 5.00002ZM12.7903 3.5C12.7903 4.06786 12.3489 4.49999 11.8387 4.49999C11.3285 4.49999 10.8871 4.06786 10.8871 3.5C10.8871 2.93213 11.3285 2.5 11.8387 2.5C12.3489 2.5 12.7903 2.93213 12.7903 3.5ZM9.40323 9.5C9.40323 10.0679 8.96185 10.5 8.45161 10.5C7.94138 10.5 7.5 10.0679 7.5 9.5C7.5 8.93214 7.94138 8.50001 8.45161 8.50001C8.96185 8.50001 9.40323 8.93214 9.40323 9.5Z" stroke="#DEC4E3"/>
<path d="M22.0806 8.00001C22.0806 8.56787 21.6393 9 21.129 9C20.6188 9 20.1774 8.56787 20.1774 8.00001C20.1774 7.43215 20.6188 7.00001 21.129 7.00001C21.6393 7.00001 22.0806 7.43215 22.0806 8.00001ZM24.5 5.00002C24.5 5.56788 24.0586 6.00002 23.5484 6.00002C23.0382 6.00002 22.5968 5.56788 22.5968 5.00002C22.5968 4.43216 23.0382 4.00003 23.5484 4.00003C24.0586 4.00003 24.5 4.43216 24.5 5.00002ZM15.7903 3.5C15.7903 4.06786 15.3489 4.49999 14.8387 4.49999C14.3285 4.49999 13.8871 4.06786 13.8871 3.5C13.8871 2.93213 14.3285 2.5 14.8387 2.5C15.3489 2.5 15.7903 2.93213 15.7903 3.5ZM12.4032 9.5C12.4032 10.0679 11.9618 10.5 11.4516 10.5C10.9414 10.5 10.5 10.0679 10.5 9.5C10.5 8.93214 10.9414 8.50001 11.4516 8.50001C11.9618 8.50001 12.4032 8.93214 12.4032 9.5Z" stroke="#DEC4E3"/>
<circle cx="11.5" cy="11.5" r="1" stroke="#DEC4E3"/>
<circle cx="20.5" cy="9.5" r="1" stroke="#DEC4E3"/>
<circle cx="15.5" cy="6.5" r="1" stroke="#DEC4E3"/>
</svg>

