<svg width="30" height="30" viewBox="0 0 30 30" fill="none" xmlns="http://www.w3.org/2000/svg">
<path d="M19.3002 7.22994L15.8293 10.7003L12.3594 7.22994C11.3501 7.70531 10.4944 8.80981 10.4944 9.8475V19.3434C10.4944 20.0278 11.0495 20.5828 11.7333 20.5828C12.0704 20.5828 11.7333 20.5828 12.5986 20.5828L13.0702 28.6814C13.0702 29.4098 13.6608 30 14.3888 30C14.6961 30 15.2627 30 15.8293 30C16.3969 30 16.9635 30 17.2709 30C17.9988 30 18.5895 29.4098 18.5895 28.6814L19.0611 20.5828C19.9255 20.5828 19.5893 20.5828 19.9255 20.5828C20.6102 20.5828 21.1644 20.0277 21.1644 19.3434V9.8475C21.1653 8.80981 20.3096 7.70531 19.3002 7.22994Z" fill="#DEC4E3"/>
<path d="M15.859 5.65049C17.4197 5.65049 18.6836 4.38521 18.6836 2.82598C18.6836 1.26434 17.4197 0 15.859 0C14.2974 0 13.0335 1.26434 13.0335 2.82598C13.0336 4.38521 14.2975 5.65049 15.859 5.65049Z" fill="#DEC4E3"/>
<path d="M11.3184 21.245H9.21222C9.00374 21.245 8.83569 21.413 8.83569 21.6214V27.7526C8.83569 27.961 9.00374 28.1291 9.21222 28.1291H11.3184C11.5258 28.1291 11.6948 27.9611 11.6948 27.7526V21.6214C11.6948 21.4131 11.5257 21.245 11.3184 21.245Z" fill="#DEC4E3"/>
<path d="M15.0696 6.84141V9.06094L15.8293 10.0775L16.5899 9.06094V6.84141H15.8293H15.0696Z" fill="#DEC4E3"/>
</svg>

