<svg width="30" height="30" viewBox="0 0 30 30" fill="none" xmlns="http://www.w3.org/2000/svg">
<path d="M23.4979 8.37474L19.8884 11.9842L19.8979 12.0158L22.639 22.1053C22.6859 22.3257 22.6802 22.5541 22.6223 22.7719C22.5644 22.9898 22.456 23.1909 22.3058 23.3589L21.4011 24.2637C21.3426 24.332 21.2678 24.3845 21.1836 24.4163C21.0995 24.448 21.0087 24.4581 20.9196 24.4455C20.8305 24.4329 20.7461 24.3981 20.674 24.3442C20.602 24.2904 20.5447 24.2192 20.5074 24.1374L16.8 17.4268L15.6237 16.2489L12.5132 19.3595C12.1567 19.6776 11.7582 19.9454 11.329 20.1553L12.0237 22.44C12.0764 22.6578 12.0754 22.8852 12.0206 23.1025C11.9659 23.3198 11.8591 23.5205 11.7095 23.6874L11.4332 23.9653C11.2921 24.1053 11.1014 24.1838 10.9026 24.1838C10.7039 24.1838 10.5132 24.1053 10.3721 23.9653L8.73001 22.3247L8.70159 22.2932L7.45738 21.0521L7.4258 21.0205L5.78685 19.38C5.64685 19.2389 5.56829 19.0482 5.56829 18.8495C5.56829 18.6507 5.64685 18.46 5.78685 18.3189L6.06475 18.041C6.23188 17.892 6.43275 17.7858 6.65005 17.7316C6.86735 17.6774 7.09456 17.6769 7.31212 17.73L9.59685 18.4216C9.80694 17.9924 10.0747 17.594 10.3926 17.2374L13.5032 14.1268L12.3253 12.9521L5.61475 9.24474C5.53288 9.20745 5.46174 9.15014 5.40788 9.07809C5.35402 9.00605 5.31919 8.92159 5.3066 8.83252C5.29401 8.74345 5.30407 8.65265 5.33585 8.5685C5.36763 8.48435 5.42011 8.40956 5.48843 8.35105L6.39317 7.44631C6.56131 7.29626 6.76242 7.1879 6.98023 7.13002C7.19803 7.07214 7.4264 7.06636 7.64685 7.11316L17.7363 9.85421L17.7679 9.86368L21.3774 6.25421C21.9616 5.66684 23.9369 4.64368 24.5242 5.22789C25.1084 5.81526 24.0837 7.78895 23.4979 8.37474Z" fill="#DEC4E3"/>
</svg>

