<svg width="23" height="30" viewBox="0 0 23 30" fill="none" xmlns="http://www.w3.org/2000/svg">
<path d="M23 6.61833V7.58604e-06L15.0593 7.58604e-06L10.7812 6.37227e-06C10.7812 6.37227e-06 12.0213 6.37227e-06 10.0625 6.37227e-06C7.94075 8.64809e-06 10.0625 9.25497e-06 7.94075 0L0 7.58604e-06V6.61833C0 10.6869 5.15482 14 11.5 14C17.8452 14 23 10.6869 23 6.61833Z" stroke="#DEC4E3" stroke-width="3"/>
<path d="M7.80985 26L1 30H7.80985L8.61538 29.3333C8.61538 29.3333 12.8055 26.6667 16.1902 30L23 30L16.1902 26C16.1902 26 13.6923 24.6667 12 14C10.3077 24.6667 7.80985 26 7.80985 26Z" stroke="#DEC4E3" stroke-width="3"/>
</svg>

